<?xml version="1.0" standalone="no"?><svg xmlns:xlink="http://www.w3.org/1999/xlink" xmlns="http://www.w3.org/2000/svg" viewBox="0 0 1000 363.6363636363636" preserveAspectRatio="xMaxYMax slice"><g transform="scale(0.9229349330872173)"><rect x="0" y="0" width="1083.5" height="394" fill="#ffffff"/><rect x="0" y="0" width="49.25" height="49.25" fill="#6395ff"/><path d="M 0 0 A 49.25 49.25 0 0 0 49.25 49.25 L 49.25 0" fill="#7b7b7b"/><rect x="49.25" y="0" width="49.25" height="49.25" fill="#6b9aff"/><path d="M 49.25 0 A 49.25 49.25 0 0 0 98.5 49.25 L 98.5 0" fill="#c5d7ff"/><rect x="98.5" y="0" width="49.25" height="49.25" fill="#ffffff"/><rect x="98.5" y="0" width="24.63" height="24.63" fill="#4b4b4b"/><path d="M 98.5 0 A 24.63 24.63 0 0 0 123.13 24.63 L 123.13 0" fill="#e1eaff"/><rect x="123.13" y="0" width="24.63" height="24.63" fill="#c2c2c2"/><path d="M 123.13 24.63 A 24.63 24.63 0 0 0 147.76 0 L 123.13 0" fill="#4983ff"/><rect x="98.5" y="24.63" width="24.63" height="24.63" fill="#0b59ff"/><path d="M 98.5 49.26 A 24.63 24.63 0 0 1  123.13 24.63 L 123.13 49.26" fill="#fafafa"/><rect x="123.13" y="24.63" width="24.63" height="24.63" fill="#b1caff"/><path d="M 123.13 24.63 A 24.63 24.63 0 0 1 147.76 49.26 L 123.13 49.26" fill="#595959"/><rect x="147.75" y="0" width="49.25" height="49.25" fill="#ffffff"/><rect x="147.75" y="0" width="24.63" height="24.63" fill="#c3c3c3"/><path d="M 147.75 0 A 24.63 24.63 0 0 0 172.38 24.63 L 172.38 0" fill="#5088ff"/><rect x="172.38" y="0" width="24.63" height="24.63" fill="#696969"/><path d="M 172.38 24.63 A 24.63 24.63 0 0 0 197.01 0 L 172.38 0" fill="#3d7bff"/><rect x="147.75" y="24.63" width="24.63" height="24.63" fill="#fafcff"/><path d="M 147.75 49.26 A 24.63 24.63 0 0 1  172.38 24.63 L 172.38 49.26" fill="#ebebeb"/><rect x="172.38" y="24.63" width="24.63" height="24.63" fill="#6c9cff"/><path d="M 172.38 24.63 A 24.63 24.63 0 0 1 197.01 49.26 L 172.38 49.26" fill="#a6c3ff"/><rect x="197" y="0" width="49.25" height="49.25" fill="#bebebe"/><polygon points="197,0 246.25,0 246.25,49.25" fill="#797979"/><rect x="246.25" y="0" width="49.25" height="49.25" fill="#ffffff"/><rect x="246.25" y="0" width="24.63" height="24.63" fill="#dee9ff"/><path d="M 246.25 24.63 A 24.63 24.63 0 0 1  270.88 0 L 270.88 24.63" fill="#125eff"/><rect x="270.88" y="0" width="24.63" height="24.63" fill="#2e2e2e"/><path d="M 270.88 0 A 24.63 24.63 0 0 1 295.51 24.63 L 270.88 24.63" fill="#101010"/><rect x="246.25" y="24.63" width="24.63" height="24.63" fill="#606060"/><path d="M 246.25 24.63 A 24.63 24.63 0 0 0 270.88 49.26 L 270.88 24.63" fill="#0c0c0c"/><rect x="270.88" y="24.63" width="24.63" height="24.63" fill="#fdfdfd"/><path d="M 270.88 49.26 A 24.63 24.63 0 0 0 295.51 24.63 L 270.88 24.63" fill="#272727"/><rect x="295.5" y="0" width="49.25" height="49.25" fill="#afc9ff"/><path d="M 295.5 49.25 A 49.25 49.25 0 0 1  344.75 0 L 295.5 49.25 A 49.25 49.25 0 0 0 344.75 0" fill="#efefef"/><rect x="344.75" y="0" width="49.25" height="49.25" fill="#ffffff"/><rect x="344.75" y="0" width="24.63" height="24.63" fill="#353535"/><polygon points="369.38,0 369.38,24.63 344.75,24.63" fill="#0c0c0c"/><rect x="369.38" y="0" width="24.63" height="24.63" fill="#bbd1ff"/><polygon points="369.38,0 394.01,0 369.38,24.63" fill="#6b9aff"/><rect x="344.75" y="24.63" width="24.63" height="24.63" fill="#737373"/><polygon points="344.75,24.63 369.38,24.63 369.38,49.26" fill="#aeaeae"/><rect x="369.38" y="24.63" width="24.63" height="24.63" fill="#0a0a0a"/><polygon points="369.38,24.63 394.01,49.26 369.38,49.26" fill="#1560ff"/><rect x="394" y="0" width="49.25" height="49.25" fill="#9abbff"/><polygon points="443.25,0 443.25,49.25 394,49.25" fill="#3f7dff"/><rect x="443.25" y="0" width="49.25" height="49.25" fill="#ffffff"/><rect x="443.25" y="0" width="24.63" height="24.63" fill="#aac5ff"/><path d="M 443.25 0 A 24.63 24.63 0 0 1 467.88 24.63 L 443.25 24.63" fill="#558cff"/><rect x="467.88" y="0" width="24.63" height="24.63" fill="#f9f9f9"/><path d="M 467.88 24.63 A 24.63 24.63 0 0 1  492.51 0 L 492.51 24.63" fill="#6899ff"/><rect x="443.25" y="24.63" width="24.63" height="24.63" fill="#656565"/><path d="M 443.25 49.26 A 24.63 24.63 0 0 0 467.88 24.63 L 443.25 24.63" fill="#9cbcff"/><rect x="467.88" y="24.63" width="24.63" height="24.63" fill="#84abff"/><path d="M 467.88 24.63 A 24.63 24.63 0 0 0 492.51 49.26 L 492.51 24.63" fill="#d6e3ff"/><rect x="492.5" y="0" width="49.25" height="49.25" fill="#ffffff"/><rect x="492.5" y="0" width="24.63" height="24.63" fill="#4e87ff"/><path d="M 492.5 24.63 A 24.63 24.63 0 0 1 517.13 0 L 517.13 6.1575 A 18.4725 18.4725 0 0 0 498.6575 24.63" fill="#407dff"/><rect x="517.13" y="0" width="24.63" height="24.63" fill="#6999ff"/><path d="M 517.13 0 A 24.63 24.63 0 0 1 541.76 24.63 L 535.6025 24.63 A 18.4725 18.4725 0 0 0 517.13 6.1575" fill="#080808"/><rect x="492.5" y="24.63" width="24.63" height="24.63" fill="#c9dbff"/><path d="M 492.5 24.63 A 24.63 24.63 0 0 0 517.13 49.26 L 517.13 43.1025 A 18.4725 18.4725 0 0 1 498.6575 24.63" fill="#040404"/><rect x="517.13" y="24.63" width="24.63" height="24.63" fill="#73a0ff"/><path d="M 517.13 49.26 A 24.63 24.63 0 0 0 541.76 24.63 L 535.6025 24.63 A 18.4725 18.4725 0 0 1 517.13 43.1025" fill="#246aff"/><rect x="541.75" y="0" width="49.25" height="49.25" fill="#ffffff"/><rect x="541.75" y="0" width="24.63" height="24.63" fill="#dde8ff"/><polygon points="566.38,0 566.38,24.63 541.75,24.63" fill="#d3d3d3"/><rect x="566.38" y="0" width="24.63" height="24.63" fill="#83abff"/><polygon points="566.38,0 591.01,0 566.38,24.63" fill="#e8e8e8"/><rect x="541.75" y="24.63" width="24.63" height="24.63" fill="#292929"/><polygon points="541.75,24.63 566.38,24.63 566.38,49.26" fill="#729fff"/><rect x="566.38" y="24.63" width="24.63" height="24.63" fill="#0e0e0e"/><polygon points="566.38,24.63 591.01,49.26 566.38,49.26" fill="#4f88ff"/><rect x="591" y="0" width="49.25" height="49.25" fill="#ffffff"/><rect x="591" y="0" width="24.63" height="24.63" fill="#dbe7ff"/><path d="M 591 24.63 A 24.63 24.63 0 0 1  615.63 0 L 615.63 24.63" fill="#8fb3ff"/><rect x="615.63" y="0" width="24.63" height="24.63" fill="#666666"/><path d="M 615.63 0 A 24.63 24.63 0 0 1 640.26 24.63 L 615.63 24.63" fill="#202020"/><rect x="591" y="24.63" width="24.63" height="24.63" fill="#373737"/><path d="M 591 24.63 A 24.63 24.63 0 0 0 615.63 49.26 L 615.63 24.63" fill="#bfd3ff"/><rect x="615.63" y="24.63" width="24.63" height="24.63" fill="#141414"/><path d="M 615.63 49.26 A 24.63 24.63 0 0 0 640.26 24.63 L 615.63 24.63" fill="#6f6f6f"/><rect x="640.25" y="0" width="49.25" height="49.25" fill="#ffffff"/><rect x="640.25" y="0" width="24.63" height="24.63" fill="#84acff"/><path d="M 640.25 0 A 24.63 24.63 0 0 0 664.88 24.63 L 664.88 0" fill="#fcfdff"/><rect x="664.88" y="0" width="24.63" height="24.63" fill="#0455ff"/><path d="M 664.88 24.63 A 24.63 24.63 0 0 0 689.51 0 L 664.88 0" fill="#a9a9a9"/><rect x="640.25" y="24.63" width="24.63" height="24.63" fill="#0f5cff"/><path d="M 640.25 49.26 A 24.63 24.63 0 0 1  664.88 24.63 L 664.88 49.26" fill="#a9a9a9"/><rect x="664.88" y="24.63" width="24.63" height="24.63" fill="#3a3a3a"/><path d="M 664.88 24.63 A 24.63 24.63 0 0 1 689.51 49.26 L 664.88 49.26" fill="#a8a8a8"/><rect x="689.5" y="0" width="49.25" height="49.25" fill="#ffffff"/><rect x="689.5" y="0" width="24.63" height="24.63" fill="#fdfdff"/><circle cx="701.815" cy="12.315" r="12.315" fill="#1a64ff"/><rect x="714.13" y="0" width="24.63" height="24.63" fill="#ebf1ff"/><rect x="714.13" y="0" width="24.63" height="24.63" fill="#9e9e9e"/><rect x="689.5" y="24.63" width="24.63" height="24.63" fill="#dde8ff"/><circle cx="701.815" cy="36.945" r="12.315" fill="#767676"/><rect x="714.13" y="24.63" width="24.63" height="24.63" fill="#bebebe"/><rect x="714.13" y="24.63" width="24.63" height="24.63" fill="#bed3ff"/><rect x="738.75" y="0" width="49.25" height="49.25" fill="#ffffff"/><rect x="738.75" y="0" width="24.63" height="24.63" fill="#484848"/><path d="M 738.75 24.63 A 24.63 24.63 0 0 1 763.38 0 L 763.38 6.1575 A 18.4725 18.4725 0 0 0 744.9075 24.63" fill="#0253ff"/><rect x="763.38" y="0" width="24.63" height="24.63" fill="#236aff"/><path d="M 763.38 0 A 24.63 24.63 0 0 1 788.01 24.63 L 781.8525 24.63 A 18.4725 18.4725 0 0 0 763.38 6.1575" fill="#e7eeff"/><rect x="738.75" y="24.63" width="24.63" height="24.63" fill="#c5d8ff"/><path d="M 738.75 24.63 A 24.63 24.63 0 0 0 763.38 49.26 L 763.38 43.1025 A 18.4725 18.4725 0 0 1 744.9075 24.63" fill="#4d86ff"/><rect x="763.38" y="24.63" width="24.63" height="24.63" fill="#7d7d7d"/><path d="M 763.38 49.26 A 24.63 24.63 0 0 0 788.01 24.63 L 781.8525 24.63 A 18.4725 18.4725 0 0 1 763.38 43.1025" fill="#7ba5ff"/><rect x="788" y="0" width="49.25" height="49.25" fill="#ffffff"/><rect x="788" y="0" width="24.63" height="24.63" fill="#85acff"/><circle cx="800.315" cy="12.315" r="12.315" fill="#afc9ff"/><rect x="812.63" y="0" width="24.63" height="24.63" fill="#999999"/><rect x="812.63" y="0" width="24.63" height="24.63" fill="#080808"/><rect x="788" y="24.63" width="24.63" height="24.63" fill="#e4ecff"/><circle cx="800.315" cy="36.945" r="12.315" fill="#313131"/><rect x="812.63" y="24.63" width="24.63" height="24.63" fill="#4d4d4d"/><rect x="812.63" y="24.63" width="24.63" height="24.63" fill="#4380ff"/><rect x="837.25" y="0" width="49.25" height="49.25" fill="#656565"/><polygon points="837.25,0 886.5,0 886.5,49.25" fill="#0e0e0e"/><rect x="886.5" y="0" width="49.25" height="49.25" fill="#ffffff"/><rect x="886.5" y="0" width="24.63" height="24.63" fill="#4480ff"/><path d="M 886.5 0 A 24.63 24.63 0 0 1 911.13 24.63 L 886.5 24.63" fill="#f2f2f2"/><rect x="911.13" y="0" width="24.63" height="24.63" fill="#d9d9d9"/><path d="M 911.13 24.63 A 24.63 24.63 0 0 1  935.76 0 L 935.76 24.63" fill="#6d9cff"/><rect x="886.5" y="24.63" width="24.63" height="24.63" fill="#2269ff"/><path d="M 886.5 49.26 A 24.63 24.63 0 0 0 911.13 24.63 L 886.5 24.63" fill="#9abbff"/><rect x="911.13" y="24.63" width="24.63" height="24.63" fill="#8db2ff"/><path d="M 911.13 24.63 A 24.63 24.63 0 0 0 935.76 49.26 L 935.76 24.63" fill="#b3b3b3"/><rect x="935.75" y="0" width="49.25" height="49.25" fill="#ffffff"/><rect x="935.75" y="0" width="24.63" height="24.63" fill="#2b6fff"/><polygon points="960.38,0 960.38,24.63 935.75,24.63" fill="#727272"/><rect x="960.38" y="0" width="24.63" height="24.63" fill="#276dff"/><polygon points="960.38,0 985.01,24.63 960.38,24.63" fill="#538aff"/><rect x="935.75" y="24.63" width="24.63" height="24.63" fill="#282828"/><polygon points="935.75,24.63 960.38,24.63 960.38,49.26" fill="#545454"/><rect x="960.38" y="24.63" width="24.63" height="24.63" fill="#a1a1a1"/><polygon points="960.38,24.63 985.01,24.63 960.38,49.26" fill="#0d0d0d"/><rect x="985" y="0" width="49.25" height="49.25" fill="#3c7bff"/><polygon points="985,0 1034.25,0 1034.25,49.25" fill="#cfdeff"/><rect x="1034.25" y="0" width="49.25" height="49.25" fill="#ffffff"/><rect x="1034.25" y="0" width="24.63" height="24.63" fill="#aac5ff"/><path d="M 1034.25 24.63 A 24.63 24.63 0 0 1  1058.88 0 L 1058.88 24.63" fill="#f7faff"/><rect x="1058.88" y="0" width="24.63" height="24.63" fill="#578dff"/><path d="M 1058.88 0 A 24.63 24.63 0 0 1 1083.5100000000002 24.63 L 1058.88 24.63" fill="#6a6a6a"/><rect x="1034.25" y="24.63" width="24.63" height="24.63" fill="#5c5c5c"/><path d="M 1034.25 24.63 A 24.63 24.63 0 0 0 1058.88 49.26 L 1058.88 24.63" fill="#232323"/><rect x="1058.88" y="24.63" width="24.63" height="24.63" fill="#6697ff"/><path d="M 1058.88 49.26 A 24.63 24.63 0 0 0 1083.5100000000002 24.63 L 1058.88 24.63" fill="#0c5aff"/><rect x="0" y="49.25" width="49.25" height="49.25" fill="#4f4f4f"/><path d="M 0 49.25 A 49.25 49.25 0 0 1 49.25 98.5 L 0 98.5" fill="#787878"/><rect x="49.25" y="49.25" width="49.25" height="49.25" fill="#ffffff"/><rect x="49.25" y="49.25" width="24.63" height="24.63" fill="#d2d2d2"/><path d="M 49.25 73.88 A 24.63 24.63 0 0 0 73.88 49.25 L 49.25 49.25" fill="#393939"/><rect x="73.88" y="49.25" width="24.63" height="24.63" fill="#cbcbcb"/><path d="M 73.88 49.25 A 24.63 24.63 0 0 0 98.50999999999999 73.88 L 98.50999999999999 49.25" fill="#4c86ff"/><rect x="49.25" y="73.88" width="24.63" height="24.63" fill="#414141"/><path d="M 49.25 73.88 A 24.63 24.63 0 0 1 73.88 98.50999999999999 L 49.25 98.50999999999999" fill="#3a79ff"/><rect x="73.88" y="73.88" width="24.63" height="24.63" fill="#3073ff"/><path d="M 73.88 98.50999999999999 A 24.63 24.63 0 0 1  98.50999999999999 73.88 L 98.50999999999999 98.50999999999999" fill="#eef4ff"/><rect x="98.5" y="49.25" width="49.25" height="49.25" fill="#ffffff"/><rect x="98.5" y="49.25" width="24.63" height="24.63" fill="#1a63ff"/><path d="M 98.5 73.88 A 24.63 24.63 0 0 1  123.13 49.25 L 123.13 73.88" fill="#ececec"/><rect x="123.13" y="49.25" width="24.63" height="24.63" fill="#dedede"/><path d="M 123.13 49.25 A 24.63 24.63 0 0 1 147.76 73.88 L 123.13 73.88" fill="#bbd1ff"/><rect x="98.5" y="73.88" width="24.63" height="24.63" fill="#0b59ff"/><path d="M 98.5 73.88 A 24.63 24.63 0 0 0 123.13 98.50999999999999 L 123.13 73.88" fill="#3274ff"/><rect x="123.13" y="73.88" width="24.63" height="24.63" fill="#808080"/><path d="M 123.13 98.50999999999999 A 24.63 24.63 0 0 0 147.76 73.88 L 123.13 73.88" fill="#555555"/><rect x="147.75" y="49.25" width="49.25" height="49.25" fill="#ffffff"/><rect x="147.75" y="49.25" width="24.63" height="24.63" fill="#dfeaff"/><path d="M 147.75 49.25 A 24.63 24.63 0 0 1 172.38 73.88 L 147.75 73.88" fill="#585858"/><rect x="172.38" y="49.25" width="24.63" height="24.63" fill="#fcfcfc"/><path d="M 172.38 73.88 A 24.63 24.63 0 0 1  197.01 49.25 L 197.01 73.88" fill="#4984ff"/><rect x="147.75" y="73.88" width="24.63" height="24.63" fill="#4c4c4c"/><path d="M 147.75 98.50999999999999 A 24.63 24.63 0 0 0 172.38 73.88 L 147.75 73.88" fill="#4682ff"/><rect x="172.38" y="73.88" width="24.63" height="24.63" fill="#a0beff"/><path d="M 172.38 73.88 A 24.63 24.63 0 0 0 197.01 98.50999999999999 L 197.01 73.88" fill="#f4f4f4"/><rect x="197" y="49.25" width="49.25" height="49.25" fill="#ffffff"/><rect x="197" y="49.25" width="24.63" height="24.63" fill="#eff4ff"/><path d="M 197 49.25 A 24.63 24.63 0 0 1 221.63 73.88 L 197 73.88" fill="#f0f5ff"/><rect x="221.63" y="49.25" width="24.63" height="24.63" fill="#6b9aff"/><path d="M 221.63 73.88 A 24.63 24.63 0 0 1  246.26 49.25 L 246.26 73.88" fill="#6194ff"/><rect x="197" y="73.88" width="24.63" height="24.63" fill="#0656ff"/><path d="M 197 98.50999999999999 A 24.63 24.63 0 0 0 221.63 73.88 L 197 73.88" fill="#d7e4ff"/><rect x="221.63" y="73.88" width="24.63" height="24.63" fill="#4a4a4a"/><path d="M 221.63 73.88 A 24.63 24.63 0 0 0 246.26 98.50999999999999 L 246.26 73.88" fill="#0c5aff"/><rect x="246.25" y="49.25" width="49.25" height="49.25" fill="#7ca6ff"/><rect x="246.25" y="49.25" width="49.25" height="49.25" fill="#b6b6b6"/><rect x="295.5" y="49.25" width="49.25" height="49.25" fill="#ffffff"/><rect x="295.5" y="49.25" width="24.63" height="24.63" fill="#5b5b5b"/><polygon points="320.13,49.25 320.13,73.88 295.5,73.88" fill="#2b6fff"/><rect x="320.13" y="49.25" width="24.63" height="24.63" fill="#141414"/><polygon points="320.13,49.25 344.76,73.88 320.13,73.88" fill="#6295ff"/><rect x="295.5" y="73.88" width="24.63" height="24.63" fill="#d9e5ff"/><polygon points="295.5,73.88 320.13,73.88 295.5,98.50999999999999" fill="#454545"/><rect x="320.13" y="73.88" width="24.63" height="24.63" fill="#b5cdff"/><polygon points="320.13,73.88 344.76,73.88 344.76,98.50999999999999" fill="#535353"/><rect x="344.75" y="49.25" width="49.25" height="49.25" fill="#c9c9c9"/><path d="M 344.75 98.5 A 49.25 49.25 0 0 0 394 49.25 L 344.75 49.25" fill="#989898"/><rect x="394" y="49.25" width="49.25" height="49.25" fill="#ffffff"/><rect x="394" y="49.25" width="24.63" height="24.63" fill="#6a9aff"/><polygon points="418.63,49.25 418.63,73.88 394,73.88" fill="#a4a4a4"/><rect x="418.63" y="49.25" width="24.63" height="24.63" fill="#515151"/><polygon points="418.63,49.25 443.26,73.88 418.63,73.88" fill="#c7d9ff"/><rect x="394" y="73.88" width="24.63" height="24.63" fill="#131313"/><polygon points="394,73.88 418.63,73.88 394,98.50999999999999" fill="#666666"/><rect x="418.63" y="73.88" width="24.63" height="24.63" fill="#d7d7d7"/><polygon points="418.63,73.88 443.26,73.88 443.26,98.50999999999999" fill="#777777"/><rect x="443.25" y="49.25" width="49.25" height="49.25" fill="#ffffff"/><rect x="443.25" y="49.25" width="24.63" height="24.63" fill="#f5f5f5"/><path d="M 443.25 49.25 A 24.63 24.63 0 0 0 467.88 73.88 L 467.88 49.25" fill="#6496ff"/><rect x="467.88" y="49.25" width="24.63" height="24.63" fill="#4681ff"/><path d="M 467.88 73.88 A 24.63 24.63 0 0 0 492.51 49.25 L 467.88 49.25" fill="#e3ecff"/><rect x="443.25" y="73.88" width="24.63" height="24.63" fill="#719eff"/><path d="M 443.25 98.50999999999999 A 24.63 24.63 0 0 1  467.88 73.88 L 467.88 98.50999999999999" fill="#6d9cff"/><rect x="467.88" y="73.88" width="24.63" height="24.63" fill="#0757ff"/><path d="M 467.88 73.88 A 24.63 24.63 0 0 1 492.51 98.50999999999999 L 467.88 98.50999999999999" fill="#558cff"/><rect x="492.5" y="49.25" width="49.25" height="49.25" fill="#ffffff"/><rect x="492.5" y="49.25" width="24.63" height="24.63" fill="#4e4e4e"/><polygon points="517.13,49.25 517.13,73.88 492.5,73.88" fill="#bcd1ff"/><rect x="517.13" y="49.25" width="24.63" height="24.63" fill="#1b1b1b"/><polygon points="517.13,49.25 541.76,49.25 517.13,73.88" fill="#6e6e6e"/><rect x="492.5" y="73.88" width="24.63" height="24.63" fill="#fefefe"/><polygon points="492.5,73.88 517.13,73.88 517.13,98.50999999999999" fill="#525252"/><rect x="517.13" y="73.88" width="24.63" height="24.63" fill="#0e0e0e"/><polygon points="517.13,73.88 541.76,98.50999999999999 517.13,98.50999999999999" fill="#e6e6e6"/><rect x="541.75" y="49.25" width="49.25" height="49.25" fill="#878787"/><path d="M 541.75 98.5 A 49.25 49.25 0 0 1  591 49.25 L 591 98.5" fill="#4f4f4f"/><rect x="591" y="49.25" width="49.25" height="49.25" fill="#9e9e9e"/><polygon points="591,49.25 640.25,49.25 640.25,98.5" fill="#d4d4d4"/><rect x="640.25" y="49.25" width="49.25" height="49.25" fill="#ffffff"/><rect x="640.25" y="49.25" width="24.63" height="24.63" fill="#89afff"/><path d="M 640.25 49.25 A 24.63 24.63 0 0 0 664.88 73.88 L 664.88 49.25" fill="#363636"/><rect x="664.88" y="49.25" width="24.63" height="24.63" fill="#3b3b3b"/><path d="M 664.88 73.88 A 24.63 24.63 0 0 0 689.51 49.25 L 664.88 49.25" fill="#eeeeee"/><rect x="640.25" y="73.88" width="24.63" height="24.63" fill="#0c0c0c"/><path d="M 640.25 98.50999999999999 A 24.63 24.63 0 0 1  664.88 73.88 L 664.88 98.50999999999999" fill="#2f72ff"/><rect x="664.88" y="73.88" width="24.63" height="24.63" fill="#7ba5ff"/><path d="M 664.88 73.88 A 24.63 24.63 0 0 1 689.51 98.50999999999999 L 664.88 98.50999999999999" fill="#9b9b9b"/><rect x="689.5" y="49.25" width="49.25" height="49.25" fill="#323232"/><rect x="689.5" y="49.25" width="49.25" height="49.25" fill="#f4f7ff"/><rect x="738.75" y="49.25" width="49.25" height="49.25" fill="#959595"/><rect x="738.75" y="49.25" width="49.25" height="49.25" fill="#fcfdff"/><rect x="788" y="49.25" width="49.25" height="49.25" fill="#ffffff"/><rect x="788" y="49.25" width="24.63" height="24.63" fill="#eaf1ff"/><path d="M 788 73.88 A 24.63 24.63 0 0 1 812.63 49.25 L 812.63 55.4075 A 18.4725 18.4725 0 0 0 794.1575 73.88" fill="#b2b2b2"/><rect x="812.63" y="49.25" width="24.63" height="24.63" fill="#b9b9b9"/><path d="M 812.63 49.25 A 24.63 24.63 0 0 1 837.26 73.88 L 831.1025 73.88 A 18.4725 18.4725 0 0 0 812.63 55.4075" fill="#e8e8e8"/><rect x="788" y="73.88" width="24.63" height="24.63" fill="#dedede"/><path d="M 788 73.88 A 24.63 24.63 0 0 0 812.63 98.50999999999999 L 812.63 92.35249999999999 A 18.4725 18.4725 0 0 1 794.1575 73.88" fill="#434343"/><rect x="812.63" y="73.88" width="24.63" height="24.63" fill="#2a2a2a"/><path d="M 812.63 98.50999999999999 A 24.63 24.63 0 0 0 837.26 73.88 L 831.1025 73.88 A 18.4725 18.4725 0 0 1 812.63 92.35249999999999" fill="#7d7d7d"/><rect x="837.25" y="49.25" width="49.25" height="49.25" fill="#191919"/><polygon points="837.25,49.25 886.5,49.25 837.25,98.5" fill="#5f93ff"/><rect x="886.5" y="49.25" width="49.25" height="49.25" fill="#ffffff"/><rect x="886.5" y="49.25" width="24.63" height="24.63" fill="#c5c5c5"/><polygon points="911.13,49.25 911.13,73.88 886.5,73.88" fill="#5e5e5e"/><rect x="911.13" y="49.25" width="24.63" height="24.63" fill="#4b85ff"/><polygon points="911.13,49.25 935.76,73.88 911.13,73.88" fill="#c3c3c3"/><rect x="886.5" y="73.88" width="24.63" height="24.63" fill="#202020"/><polygon points="886.5,73.88 911.13,73.88 911.13,98.50999999999999" fill="#cadbff"/><rect x="911.13" y="73.88" width="24.63" height="24.63" fill="#191919"/><polygon points="911.13,73.88 935.76,73.88 911.13,98.50999999999999" fill="#fdfdfd"/><rect x="935.75" y="49.25" width="49.25" height="49.25" fill="#83abff"/><polygon points="935.75,49.25 985,49.25 985,98.5" fill="#222222"/><rect x="985" y="49.25" width="49.25" height="49.25" fill="#ffffff"/><rect x="985" y="49.25" width="24.63" height="24.63" fill="#a1bfff"/><path d="M 985 73.88 A 24.63 24.63 0 0 1 1009.63 49.25 L 1009.63 55.4075 A 18.4725 18.4725 0 0 0 991.1575 73.88" fill="#6a9aff"/><rect x="1009.63" y="49.25" width="24.63" height="24.63" fill="#0f0f0f"/><path d="M 1009.63 49.25 A 24.63 24.63 0 0 1 1034.26 73.88 L 1028.1025 73.88 A 18.4725 18.4725 0 0 0 1009.63 55.4075" fill="#ededed"/><rect x="985" y="73.88" width="24.63" height="24.63" fill="#101010"/><path d="M 985 73.88 A 24.63 24.63 0 0 0 1009.63 98.50999999999999 L 1009.63 92.35249999999999 A 18.4725 18.4725 0 0 1 991.1575 73.88" fill="#6697ff"/><rect x="1009.63" y="73.88" width="24.63" height="24.63" fill="#a9a9a9"/><path d="M 1009.63 98.50999999999999 A 24.63 24.63 0 0 0 1034.26 73.88 L 1028.1025 73.88 A 18.4725 18.4725 0 0 1 1009.63 92.35249999999999" fill="#1a1a1a"/><rect x="1034.25" y="49.25" width="49.25" height="49.25" fill="#0354ff"/><polygon points="1083.5,49.25 1083.5,98.5 1034.25,98.5" fill="#528aff"/><rect x="0" y="98.5" width="49.25" height="49.25" fill="#75a2ff"/><path d="M 0 98.5 A 49.25 49.25 0 0 0 49.25 147.75 L 49.25 98.5" fill="#5189ff"/><rect x="49.25" y="98.5" width="49.25" height="49.25" fill="#ffffff"/><rect x="49.25" y="98.5" width="24.63" height="24.63" fill="#6798ff"/><path d="M 49.25 123.13 A 24.63 24.63 0 0 0 73.88 98.5 L 49.25 98.5" fill="#2068ff"/><rect x="73.88" y="98.5" width="24.63" height="24.63" fill="#94b6ff"/><path d="M 73.88 98.5 A 24.63 24.63 0 0 0 98.50999999999999 123.13 L 98.50999999999999 98.5" fill="#c4d7ff"/><rect x="49.25" y="123.13" width="24.63" height="24.63" fill="#b0c9ff"/><path d="M 49.25 123.13 A 24.63 24.63 0 0 1 73.88 147.76 L 49.25 147.76" fill="#5d91ff"/><rect x="73.88" y="123.13" width="24.63" height="24.63" fill="#6798ff"/><path d="M 73.88 147.76 A 24.63 24.63 0 0 1  98.50999999999999 123.13 L 98.50999999999999 147.76" fill="#787878"/><rect x="98.5" y="98.5" width="49.25" height="49.25" fill="#ffffff"/><rect x="98.5" y="98.5" width="24.63" height="24.63" fill="#d3e1ff"/><path d="M 98.5 98.5 A 24.63 24.63 0 0 1 123.13 123.13 L 98.5 123.13" fill="#4782ff"/><rect x="123.13" y="98.5" width="24.63" height="24.63" fill="#9fbeff"/><path d="M 123.13 123.13 A 24.63 24.63 0 0 1  147.76 98.5 L 147.76 123.13" fill="#535353"/><rect x="98.5" y="123.13" width="24.63" height="24.63" fill="#ccdcff"/><path d="M 98.5 147.76 A 24.63 24.63 0 0 0 123.13 123.13 L 98.5 123.13" fill="#f2f2f2"/><rect x="123.13" y="123.13" width="24.63" height="24.63" fill="#2b2b2b"/><path d="M 123.13 123.13 A 24.63 24.63 0 0 0 147.76 147.76 L 147.76 123.13" fill="#313131"/><rect x="147.75" y="98.5" width="49.25" height="49.25" fill="#84abff"/><polygon points="147.75,98.5 197,147.75 147.75,147.75" fill="#73a0ff"/><rect x="197" y="98.5" width="49.25" height="49.25" fill="#c1c1c1"/><rect x="197" y="98.5" width="49.25" height="49.25" fill="#9abaff"/><rect x="246.25" y="98.5" width="49.25" height="49.25" fill="#ffffff"/><rect x="246.25" y="98.5" width="24.63" height="24.63" fill="#74a1ff"/><path d="M 246.25 123.13 A 24.63 24.63 0 0 0 270.88 98.5 L 246.25 98.5" fill="#3a7aff"/><rect x="270.88" y="98.5" width="24.63" height="24.63" fill="#484848"/><path d="M 270.88 98.5 A 24.63 24.63 0 0 0 295.51 123.13 L 295.51 98.5" fill="#0e5bff"/><rect x="246.25" y="123.13" width="24.63" height="24.63" fill="#5a8fff"/><path d="M 246.25 123.13 A 24.63 24.63 0 0 1 270.88 147.76 L 246.25 147.76" fill="#101010"/><rect x="270.88" y="123.13" width="24.63" height="24.63" fill="#595959"/><path d="M 270.88 147.76 A 24.63 24.63 0 0 1  295.51 123.13 L 295.51 147.76" fill="#939393"/><rect x="295.5" y="98.5" width="49.25" height="49.25" fill="#888888"/><rect x="295.5" y="98.5" width="49.25" height="49.25" fill="#4782ff"/><rect x="344.75" y="98.5" width="49.25" height="49.25" fill="#ffffff"/><rect x="344.75" y="98.5" width="24.63" height="24.63" fill="#115eff"/><path d="M 344.75 123.13 A 24.63 24.63 0 0 1  369.38 98.5 L 369.38 123.13" fill="#9dbdff"/><rect x="369.38" y="98.5" width="24.63" height="24.63" fill="#9f9f9f"/><path d="M 369.38 98.5 A 24.63 24.63 0 0 1 394.01 123.13 L 369.38 123.13" fill="#a3c1ff"/><rect x="344.75" y="123.13" width="24.63" height="24.63" fill="#ededed"/><path d="M 344.75 123.13 A 24.63 24.63 0 0 0 369.38 147.76 L 369.38 123.13" fill="#3677ff"/><rect x="369.38" y="123.13" width="24.63" height="24.63" fill="#ebebeb"/><path d="M 369.38 147.76 A 24.63 24.63 0 0 0 394.01 123.13 L 369.38 123.13" fill="#1c65ff"/><rect x="394" y="98.5" width="49.25" height="49.25" fill="#b1b1b1"/><polygon points="394,98.5 443.25,147.75 394,147.75" fill="#f0f0f0"/><rect x="443.25" y="98.5" width="49.25" height="49.25" fill="#ffffff"/><rect x="443.25" y="98.5" width="24.63" height="24.63" fill="#2c2c2c"/><polygon points="467.88,98.5 467.88,123.13 443.25,123.13" fill="#79a4ff"/><rect x="467.88" y="98.5" width="24.63" height="24.63" fill="#cbdcff"/><polygon points="467.88,98.5 492.51,123.13 467.88,123.13" fill="#1d1d1d"/><rect x="443.25" y="123.13" width="24.63" height="24.63" fill="#578dff"/><polygon points="443.25,123.13 467.88,123.13 467.88,147.76" fill="#c3c3c3"/><rect x="467.88" y="123.13" width="24.63" height="24.63" fill="#373737"/><polygon points="467.88,123.13 492.51,123.13 467.88,147.76" fill="#0354ff"/><rect x="492.5" y="98.5" width="49.25" height="49.25" fill="#ffffff"/><rect x="492.5" y="98.5" width="24.63" height="24.63" fill="#676767"/><polygon points="517.13,98.5 517.13,123.13 492.5,123.13" fill="#1e1e1e"/><rect x="517.13" y="98.5" width="24.63" height="24.63" fill="#c9daff"/><polygon points="517.13,98.5 541.76,123.13 517.13,123.13" fill="#8fb3ff"/><rect x="492.5" y="123.13" width="24.63" height="24.63" fill="#dedede"/><polygon points="492.5,123.13 517.13,123.13 492.5,147.76" fill="#030303"/><rect x="517.13" y="123.13" width="24.63" height="24.63" fill="#3d7bff"/><polygon points="517.13,123.13 541.76,123.13 541.76,147.76" fill="#cedeff"/><rect x="541.75" y="98.5" width="49.25" height="49.25" fill="#2c2c2c"/><rect x="541.75" y="98.5" width="49.25" height="49.25" fill="#a1bfff"/><rect x="591" y="98.5" width="49.25" height="49.25" fill="#c1d5ff"/><rect x="591" y="98.5" width="49.25" height="49.25" fill="#0b59ff"/><rect x="640.25" y="98.5" width="49.25" height="49.25" fill="#f8f8f8"/><path d="M 640.25 98.5 A 49.25 49.25 0 0 1 689.5 147.75 L 640.25 147.75" fill="#5f92ff"/><rect x="689.5" y="98.5" width="49.25" height="49.25" fill="#ffffff"/><rect x="689.5" y="98.5" width="24.63" height="24.63" fill="#bebebe"/><path d="M 689.5 98.5 A 24.63 24.63 0 0 1 714.13 123.13 L 689.5 123.13" fill="#b2cbff"/><rect x="714.13" y="98.5" width="24.63" height="24.63" fill="#242424"/><path d="M 714.13 123.13 A 24.63 24.63 0 0 1  738.76 98.5 L 738.76 123.13" fill="#3e7cff"/><rect x="689.5" y="123.13" width="24.63" height="24.63" fill="#0455ff"/><path d="M 689.5 147.76 A 24.63 24.63 0 0 0 714.13 123.13 L 689.5 123.13" fill="#9bbbff"/><rect x="714.13" y="123.13" width="24.63" height="24.63" fill="#0556ff"/><path d="M 714.13 123.13 A 24.63 24.63 0 0 0 738.76 147.76 L 738.76 123.13" fill="#fdfdfd"/><rect x="738.75" y="98.5" width="49.25" height="49.25" fill="#6c6c6c"/><polygon points="738.75,98.5 788,147.75 738.75,147.75" fill="#1e66ff"/><rect x="788" y="98.5" width="49.25" height="49.25" fill="#ffffff"/><rect x="788" y="98.5" width="24.63" height="24.63" fill="#1f1f1f"/><polygon points="812.63,98.5 812.63,123.13 788,123.13" fill="#89afff"/><rect x="812.63" y="98.5" width="24.63" height="24.63" fill="#bdbdbd"/><polygon points="812.63,98.5 837.26,123.13 812.63,123.13" fill="#d7d7d7"/><rect x="788" y="123.13" width="24.63" height="24.63" fill="#8e8e8e"/><polygon points="788,123.13 812.63,123.13 812.63,147.76" fill="#fafafa"/><rect x="812.63" y="123.13" width="24.63" height="24.63" fill="#538aff"/><polygon points="812.63,123.13 837.26,123.13 812.63,147.76" fill="#c6c6c6"/><rect x="837.25" y="98.5" width="49.25" height="49.25" fill="#ffffff"/><rect x="837.25" y="98.5" width="24.63" height="24.63" fill="#fcfcfc"/><circle cx="849.565" cy="110.815" r="12.315" fill="#0d5bff"/><rect x="861.88" y="98.5" width="24.63" height="24.63" fill="#070707"/><rect x="861.88" y="98.5" width="24.63" height="24.63" fill="#e5e5e5"/><rect x="837.25" y="123.13" width="24.63" height="24.63" fill="#101010"/><circle cx="849.565" cy="135.445" r="12.315" fill="#3d3d3d"/><rect x="861.88" y="123.13" width="24.63" height="24.63" fill="#4a4a4a"/><rect x="861.88" y="123.13" width="24.63" height="24.63" fill="#8db2ff"/><rect x="886.5" y="98.5" width="49.25" height="49.25" fill="#99baff"/><rect x="886.5" y="98.5" width="49.25" height="49.25" fill="#1a64ff"/><rect x="935.75" y="98.5" width="49.25" height="49.25" fill="#ffffff"/><rect x="935.75" y="98.5" width="24.63" height="24.63" fill="#6b6b6b"/><polygon points="960.38,98.5 960.38,123.13 935.75,123.13" fill="#1a1a1a"/><rect x="960.38" y="98.5" width="24.63" height="24.63" fill="#0b0b0b"/><polygon points="960.38,98.5 985.01,98.5 960.38,123.13" fill="#757575"/><rect x="935.75" y="123.13" width="24.63" height="24.63" fill="#9b9b9b"/><polygon points="935.75,123.13 960.38,123.13 960.38,147.76" fill="#dde8ff"/><rect x="960.38" y="123.13" width="24.63" height="24.63" fill="#b6cdff"/><polygon points="960.38,123.13 985.01,147.76 960.38,147.76" fill="#5088ff"/><rect x="985" y="98.5" width="49.25" height="49.25" fill="#6a9aff"/><path d="M 985 147.75 A 49.25 49.25 0 0 0 1034.25 98.5 L 985 98.5" fill="#c9c9c9"/><rect x="1034.25" y="98.5" width="49.25" height="49.25" fill="#ffffff"/><rect x="1034.25" y="98.5" width="24.63" height="24.63" fill="#b4ccff"/><polygon points="1058.88,98.5 1058.88,123.13 1034.25,123.13" fill="#c4c4c4"/><rect x="1058.88" y="98.5" width="24.63" height="24.63" fill="#2169ff"/><polygon points="1058.88,98.5 1083.5100000000002,98.5 1058.88,123.13" fill="#343434"/><rect x="1034.25" y="123.13" width="24.63" height="24.63" fill="#dfe9ff"/><polygon points="1034.25,123.13 1058.88,123.13 1058.88,147.76" fill="#efefef"/><rect x="1058.88" y="123.13" width="24.63" height="24.63" fill="#7ba6ff"/><polygon points="1058.88,123.13 1083.5100000000002,147.76 1058.88,147.76" fill="#2e2e2e"/><rect x="0" y="147.75" width="49.25" height="49.25" fill="#a4a4a4"/><path d="M 0 197 A 49.25 49.25 0 0 0 49.25 147.75 L 0 147.75" fill="#1b64ff"/><rect x="49.25" y="147.75" width="49.25" height="49.25" fill="#080808"/><polygon points="98.5,147.75 98.5,197 49.25,197" fill="#6f9eff"/><rect x="98.5" y="147.75" width="49.25" height="49.25" fill="#2f72ff"/><polygon points="98.5,147.75 147.75,147.75 98.5,197" fill="#383838"/><rect x="147.75" y="147.75" width="49.25" height="49.25" fill="#ffffff"/><rect x="147.75" y="147.75" width="24.63" height="24.63" fill="#1e66ff"/><polygon points="172.38,147.75 172.38,172.38 147.75,172.38" fill="#9abaff"/><rect x="172.38" y="147.75" width="24.63" height="24.63" fill="#a8a8a8"/><polygon points="172.38,147.75 197.01,147.75 172.38,172.38" fill="#8c8c8c"/><rect x="147.75" y="172.38" width="24.63" height="24.63" fill="#e9e9e9"/><polygon points="147.75,172.38 172.38,172.38 172.38,197.01" fill="#bfd3ff"/><rect x="172.38" y="172.38" width="24.63" height="24.63" fill="#427fff"/><polygon points="172.38,172.38 197.01,197.01 172.38,197.01" fill="#8eb2ff"/><rect x="197" y="147.75" width="49.25" height="49.25" fill="#ffffff"/><rect x="197" y="147.75" width="24.63" height="24.63" fill="#181818"/><path d="M 197 172.38 A 24.63 24.63 0 0 1  221.63 147.75 L 221.63 172.38" fill="#2c70ff"/><rect x="221.63" y="147.75" width="24.63" height="24.63" fill="#9c9c9c"/><path d="M 221.63 147.75 A 24.63 24.63 0 0 1 246.26 172.38 L 221.63 172.38" fill="#3677ff"/><rect x="197" y="172.38" width="24.63" height="24.63" fill="#a5c2ff"/><path d="M 197 172.38 A 24.63 24.63 0 0 0 221.63 197.01 L 221.63 172.38" fill="#3e3e3e"/><rect x="221.63" y="172.38" width="24.63" height="24.63" fill="#c3c3c3"/><path d="M 221.63 197.01 A 24.63 24.63 0 0 0 246.26 172.38 L 221.63 172.38" fill="#3274ff"/><rect x="246.25" y="147.75" width="49.25" height="49.25" fill="#ffffff"/><rect x="246.25" y="147.75" width="24.63" height="24.63" fill="#909090"/><path d="M 246.25 147.75 A 24.63 24.63 0 0 1 270.88 172.38 L 246.25 172.38" fill="#6d9cff"/><rect x="270.88" y="147.75" width="24.63" height="24.63" fill="#6395ff"/><path d="M 270.88 172.38 A 24.63 24.63 0 0 1  295.51 147.75 L 295.51 172.38" fill="#73a0ff"/><rect x="246.25" y="172.38" width="24.63" height="24.63" fill="#888888"/><path d="M 246.25 197.01 A 24.63 24.63 0 0 0 270.88 172.38 L 246.25 172.38" fill="#dde8ff"/><rect x="270.88" y="172.38" width="24.63" height="24.63" fill="#a4c1ff"/><path d="M 270.88 172.38 A 24.63 24.63 0 0 0 295.51 197.01 L 295.51 172.38" fill="#bcbcbc"/><rect x="295.5" y="147.75" width="49.25" height="49.25" fill="#4d86ff"/><rect x="295.5" y="147.75" width="49.25" height="49.25" fill="#c5d8ff"/><rect x="344.75" y="147.75" width="49.25" height="49.25" fill="#5f93ff"/><rect x="344.75" y="147.75" width="49.25" height="49.25" fill="#9fbeff"/><rect x="394" y="147.75" width="49.25" height="49.25" fill="#ffffff"/><rect x="394" y="147.75" width="24.63" height="24.63" fill="#74a1ff"/><circle cx="406.315" cy="160.065" r="12.315" fill="#0c5aff"/><rect x="418.63" y="147.75" width="24.63" height="24.63" fill="#a7a7a7"/><rect x="418.63" y="147.75" width="24.63" height="24.63" fill="#4782ff"/><rect x="394" y="172.38" width="24.63" height="24.63" fill="#4a84ff"/><circle cx="406.315" cy="184.695" r="12.315" fill="#eff4ff"/><rect x="418.63" y="172.38" width="24.63" height="24.63" fill="#3475ff"/><rect x="418.63" y="172.38" width="24.63" height="24.63" fill="#cbdcff"/><rect x="443.25" y="147.75" width="49.25" height="49.25" fill="#ffffff"/><rect x="443.25" y="147.75" width="24.63" height="24.63" fill="#6999ff"/><path d="M 443.25 172.38 A 24.63 24.63 0 0 1  467.88 147.75 L 467.88 172.38" fill="#c6d8ff"/><rect x="467.88" y="147.75" width="24.63" height="24.63" fill="#181818"/><path d="M 467.88 147.75 A 24.63 24.63 0 0 1 492.51 172.38 L 467.88 172.38" fill="#b9d0ff"/><rect x="443.25" y="172.38" width="24.63" height="24.63" fill="#84abff"/><path d="M 443.25 172.38 A 24.63 24.63 0 0 0 467.88 197.01 L 467.88 172.38" fill="#e6e6e6"/><rect x="467.88" y="172.38" width="24.63" height="24.63" fill="#a3a3a3"/><path d="M 467.88 197.01 A 24.63 24.63 0 0 0 492.51 172.38 L 467.88 172.38" fill="#595959"/><rect x="492.5" y="147.75" width="49.25" height="49.25" fill="#ffffff"/><rect x="492.5" y="147.75" width="24.63" height="24.63" fill="#373737"/><circle cx="504.815" cy="160.065" r="12.315" fill="#c1d5ff"/><rect x="517.13" y="147.75" width="24.63" height="24.63" fill="#7ca6ff"/><rect x="517.13" y="147.75" width="24.63" height="24.63" fill="#0656ff"/><rect x="492.5" y="172.38" width="24.63" height="24.63" fill="#3d3d3d"/><circle cx="504.815" cy="184.695" r="12.315" fill="#5e92ff"/><rect x="517.13" y="172.38" width="24.63" height="24.63" fill="#d3e1ff"/><rect x="517.13" y="172.38" width="24.63" height="24.63" fill="#1963ff"/><rect x="541.75" y="147.75" width="49.25" height="49.25" fill="#ffffff"/><rect x="541.75" y="147.75" width="24.63" height="24.63" fill="#444444"/><polygon points="566.38,147.75 566.38,172.38 541.75,172.38" fill="#fbfbfb"/><rect x="566.38" y="147.75" width="24.63" height="24.63" fill="#0556ff"/><polygon points="566.38,147.75 591.01,147.75 566.38,172.38" fill="#5a5a5a"/><rect x="541.75" y="172.38" width="24.63" height="24.63" fill="#adadad"/><polygon points="541.75,172.38 566.38,172.38 566.38,197.01" fill="#dfdfdf"/><rect x="566.38" y="172.38" width="24.63" height="24.63" fill="#fefefe"/><polygon points="566.38,172.38 591.01,197.01 566.38,197.01" fill="#fcfcfc"/><rect x="591" y="147.75" width="49.25" height="49.25" fill="#9f9f9f"/><path d="M 591 147.75 A 49.25 49.25 0 0 1  640.25 197 L 591 147.75 A 49.25 49.25 0 0 0 640.25 197" fill="#fdfeff"/><rect x="640.25" y="147.75" width="49.25" height="49.25" fill="#ffffff"/><rect x="640.25" y="147.75" width="24.63" height="24.63" fill="#313131"/><path d="M 640.25 172.38 A 24.63 24.63 0 0 1  664.88 147.75 L 664.88 172.38" fill="#d8d8d8"/><rect x="664.88" y="147.75" width="24.63" height="24.63" fill="#eeeeee"/><path d="M 664.88 147.75 A 24.63 24.63 0 0 1 689.51 172.38 L 664.88 172.38" fill="#0d5bff"/><rect x="640.25" y="172.38" width="24.63" height="24.63" fill="#888888"/><path d="M 640.25 172.38 A 24.63 24.63 0 0 0 664.88 197.01 L 664.88 172.38" fill="#3c7bff"/><rect x="664.88" y="172.38" width="24.63" height="24.63" fill="#8cb1ff"/><path d="M 664.88 197.01 A 24.63 24.63 0 0 0 689.51 172.38 L 664.88 172.38" fill="#4c86ff"/><rect x="689.5" y="147.75" width="49.25" height="49.25" fill="#ccdcff"/><path d="M 689.5 197 A 49.25 49.25 0 0 0 738.75 147.75 L 689.5 147.75" fill="#8ab0ff"/><rect x="738.75" y="147.75" width="49.25" height="49.25" fill="#ffffff"/><rect x="738.75" y="147.75" width="24.63" height="24.63" fill="#c4c4c4"/><circle cx="751.065" cy="160.065" r="12.315" fill="#5c90ff"/><rect x="763.38" y="147.75" width="24.63" height="24.63" fill="#f9fbff"/><rect x="763.38" y="147.75" width="24.63" height="24.63" fill="#b6ceff"/><rect x="738.75" y="172.38" width="24.63" height="24.63" fill="#8a8a8a"/><circle cx="751.065" cy="184.695" r="12.315" fill="#888888"/><rect x="763.38" y="172.38" width="24.63" height="24.63" fill="#f0f0f0"/><rect x="763.38" y="172.38" width="24.63" height="24.63" fill="#115dff"/><rect x="788" y="147.75" width="49.25" height="49.25" fill="#eaeaea"/><polygon points="837.25,147.75 837.25,197 788,197" fill="#4b4b4b"/><rect x="837.25" y="147.75" width="49.25" height="49.25" fill="#fcfcfc"/><rect x="837.25" y="147.75" width="49.25" height="49.25" fill="#e9f0ff"/><rect x="886.5" y="147.75" width="49.25" height="49.25" fill="#ffffff"/><rect x="886.5" y="147.75" width="24.63" height="24.63" fill="#8c8c8c"/><path d="M 886.5 147.75 A 24.63 24.63 0 0 1 911.13 172.38 L 886.5 172.38" fill="#a9a9a9"/><rect x="911.13" y="147.75" width="24.63" height="24.63" fill="#a0a0a0"/><path d="M 911.13 172.38 A 24.63 24.63 0 0 1  935.76 147.75 L 935.76 172.38" fill="#8ab0ff"/><rect x="886.5" y="172.38" width="24.63" height="24.63" fill="#535353"/><path d="M 886.5 197.01 A 24.63 24.63 0 0 0 911.13 172.38 L 886.5 172.38" fill="#757575"/><rect x="911.13" y="172.38" width="24.63" height="24.63" fill="#c4d7ff"/><path d="M 911.13 172.38 A 24.63 24.63 0 0 0 935.76 197.01 L 935.76 172.38" fill="#5088ff"/><rect x="935.75" y="147.75" width="49.25" height="49.25" fill="#414141"/><path d="M 935.75 197 A 49.25 49.25 0 0 0 985 147.75 L 935.75 147.75" fill="#84abff"/><rect x="985" y="147.75" width="49.25" height="49.25" fill="#ffffff"/><rect x="985" y="147.75" width="24.63" height="24.63" fill="#3f3f3f"/><polygon points="1009.63,147.75 1009.63,172.38 985,172.38" fill="#3777ff"/><rect x="1009.63" y="147.75" width="24.63" height="24.63" fill="#8bb0ff"/><polygon points="1009.63,147.75 1034.26,147.75 1009.63,172.38" fill="#85acff"/><rect x="985" y="172.38" width="24.63" height="24.63" fill="#6d9cff"/><polygon points="985,172.38 1009.63,172.38 1009.63,197.01" fill="#256bff"/><rect x="1009.63" y="172.38" width="24.63" height="24.63" fill="#4984ff"/><polygon points="1009.63,172.38 1034.26,197.01 1009.63,197.01" fill="#f1f6ff"/><rect x="1034.25" y="147.75" width="49.25" height="49.25" fill="#4a84ff"/><path d="M 1034.25 147.75 A 49.25 49.25 0 0 1 1083.5 197 L 1034.25 197" fill="#83abff"/><rect x="0" y="197" width="49.25" height="49.25" fill="#202020"/><path d="M 0 197 A 49.25 49.25 0 0 1 49.25 246.25 L 0 246.25" fill="#797979"/><rect x="49.25" y="197" width="49.25" height="49.25" fill="#1661ff"/><path d="M 49.25 246.25 A 49.25 49.25 0 0 1  98.5 197 L 98.5 246.25" fill="#eaf1ff"/><rect x="98.5" y="197" width="49.25" height="49.25" fill="#ffffff"/><rect x="98.5" y="197" width="24.63" height="24.63" fill="#96b8ff"/><path d="M 98.5 221.63 A 24.63 24.63 0 0 0 123.13 197 L 98.5 197" fill="#fefefe"/><rect x="123.13" y="197" width="24.63" height="24.63" fill="#bfd4ff"/><path d="M 123.13 197 A 24.63 24.63 0 0 0 147.76 221.63 L 147.76 197" fill="#aeaeae"/><rect x="98.5" y="221.63" width="24.63" height="24.63" fill="#b6ceff"/><path d="M 98.5 221.63 A 24.63 24.63 0 0 1 123.13 246.26 L 98.5 246.26" fill="#d4e2ff"/><rect x="123.13" y="221.63" width="24.63" height="24.63" fill="#e8f0ff"/><path d="M 123.13 246.26 A 24.63 24.63 0 0 1  147.76 221.63 L 147.76 246.26" fill="#3576ff"/><rect x="147.75" y="197" width="49.25" height="49.25" fill="#ffffff"/><rect x="147.75" y="197" width="24.63" height="24.63" fill="#c5c5c5"/><path d="M 147.75 221.63 A 24.63 24.63 0 0 0 172.38 197 L 147.75 197" fill="#6093ff"/><rect x="172.38" y="197" width="24.63" height="24.63" fill="#5d5d5d"/><path d="M 172.38 197 A 24.63 24.63 0 0 0 197.01 221.63 L 197.01 197" fill="#f6f9ff"/><rect x="147.75" y="221.63" width="24.63" height="24.63" fill="#7c7c7c"/><path d="M 147.75 221.63 A 24.63 24.63 0 0 1 172.38 246.26 L 147.75 246.26" fill="#b7b7b7"/><rect x="172.38" y="221.63" width="24.63" height="24.63" fill="#6b9bff"/><path d="M 172.38 246.26 A 24.63 24.63 0 0 1  197.01 221.63 L 197.01 246.26" fill="#a1a1a1"/><rect x="197" y="197" width="49.25" height="49.25" fill="#ffffff"/><rect x="197" y="197" width="24.63" height="24.63" fill="#0f5cff"/><path d="M 197 221.63 A 24.63 24.63 0 0 1 221.63 197 L 221.63 203.1575 A 18.4725 18.4725 0 0 0 203.1575 221.63" fill="#eaeaea"/><rect x="221.63" y="197" width="24.63" height="24.63" fill="#fbfcff"/><path d="M 221.63 197 A 24.63 24.63 0 0 1 246.26 221.63 L 240.1025 221.63 A 18.4725 18.4725 0 0 0 221.63 203.1575" fill="#77a3ff"/><rect x="197" y="221.63" width="24.63" height="24.63" fill="#eef3ff"/><path d="M 197 221.63 A 24.63 24.63 0 0 0 221.63 246.26 L 221.63 240.1025 A 18.4725 18.4725 0 0 1 203.1575 221.63" fill="#757575"/><rect x="221.63" y="221.63" width="24.63" height="24.63" fill="#1e66ff"/><path d="M 221.63 246.26 A 24.63 24.63 0 0 0 246.26 221.63 L 240.1025 221.63 A 18.4725 18.4725 0 0 1 221.63 240.1025" fill="#c2d6ff"/><rect x="246.25" y="197" width="49.25" height="49.25" fill="#ffffff"/><rect x="246.25" y="197" width="24.63" height="24.63" fill="#2e2e2e"/><path d="M 246.25 197 A 24.63 24.63 0 0 0 270.88 221.63 L 270.88 197" fill="#2d2d2d"/><rect x="270.88" y="197" width="24.63" height="24.63" fill="#dfdfdf"/><path d="M 270.88 221.63 A 24.63 24.63 0 0 0 295.51 197 L 270.88 197" fill="#010101"/><rect x="246.25" y="221.63" width="24.63" height="24.63" fill="#909090"/><path d="M 246.25 246.26 A 24.63 24.63 0 0 1  270.88 221.63 L 270.88 246.26" fill="#2d2d2d"/><rect x="270.88" y="221.63" width="24.63" height="24.63" fill="#6899ff"/><path d="M 270.88 221.63 A 24.63 24.63 0 0 1 295.51 246.26 L 270.88 246.26" fill="#3f3f3f"/><rect x="295.5" y="197" width="49.25" height="49.25" fill="#ffffff"/><rect x="295.5" y="197" width="24.63" height="24.63" fill="#b6cdff"/><circle cx="307.815" cy="209.315" r="12.315" fill="#161616"/><rect x="320.13" y="197" width="24.63" height="24.63" fill="#a4c1ff"/><rect x="320.13" y="197" width="24.63" height="24.63" fill="#d7e4ff"/><rect x="295.5" y="221.63" width="24.63" height="24.63" fill="#3375ff"/><circle cx="307.815" cy="233.945" r="12.315" fill="#6e6e6e"/><rect x="320.13" y="221.63" width="24.63" height="24.63" fill="#4f87ff"/><rect x="320.13" y="221.63" width="24.63" height="24.63" fill="#151515"/><rect x="344.75" y="197" width="49.25" height="49.25" fill="#ffffff"/><rect x="344.75" y="197" width="24.63" height="24.63" fill="#7da7ff"/><polygon points="369.38,197 369.38,221.63 344.75,221.63" fill="#f7f7f7"/><rect x="369.38" y="197" width="24.63" height="24.63" fill="#85acff"/><polygon points="369.38,197 394.01,197 369.38,221.63" fill="#767676"/><rect x="344.75" y="221.63" width="24.63" height="24.63" fill="#3576ff"/><polygon points="344.75,221.63 369.38,221.63 369.38,246.26" fill="#0555ff"/><rect x="369.38" y="221.63" width="24.63" height="24.63" fill="#3878ff"/><polygon points="369.38,221.63 394.01,246.26 369.38,246.26" fill="#6d9cff"/><rect x="394" y="197" width="49.25" height="49.25" fill="#ffffff"/><rect x="394" y="197" width="24.63" height="24.63" fill="#c0c0c0"/><path d="M 394 197 A 24.63 24.63 0 0 1 418.63 221.63 L 394 221.63" fill="#afafaf"/><rect x="418.63" y="197" width="24.63" height="24.63" fill="#656565"/><path d="M 418.63 221.63 A 24.63 24.63 0 0 1  443.26 197 L 443.26 221.63" fill="#e0e0e0"/><rect x="394" y="221.63" width="24.63" height="24.63" fill="#dde8ff"/><path d="M 394 246.26 A 24.63 24.63 0 0 0 418.63 221.63 L 394 221.63" fill="#5a5a5a"/><rect x="418.63" y="221.63" width="24.63" height="24.63" fill="#3274ff"/><path d="M 418.63 221.63 A 24.63 24.63 0 0 0 443.26 246.26 L 443.26 221.63" fill="#8f8f8f"/><rect x="443.25" y="197" width="49.25" height="49.25" fill="#cbcbcb"/><path d="M 443.25 246.25 A 49.25 49.25 0 0 1  492.5 197 L 492.5 246.25" fill="#6b6b6b"/><rect x="492.5" y="197" width="49.25" height="49.25" fill="#ffffff"/><rect x="492.5" y="197" width="24.63" height="24.63" fill="#4b4b4b"/><path d="M 492.5 221.63 A 24.63 24.63 0 0 1 517.13 197 L 517.13 203.1575 A 18.4725 18.4725 0 0 0 498.6575 221.63" fill="#828282"/><rect x="517.13" y="197" width="24.63" height="24.63" fill="#656565"/><path d="M 517.13 197 A 24.63 24.63 0 0 1 541.76 221.63 L 535.6025 221.63 A 18.4725 18.4725 0 0 0 517.13 203.1575" fill="#686868"/><rect x="492.5" y="221.63" width="24.63" height="24.63" fill="#101010"/><path d="M 492.5 221.63 A 24.63 24.63 0 0 0 517.13 246.26 L 517.13 240.1025 A 18.4725 18.4725 0 0 1 498.6575 221.63" fill="#c0d4ff"/><rect x="517.13" y="221.63" width="24.63" height="24.63" fill="#e6eeff"/><path d="M 517.13 246.26 A 24.63 24.63 0 0 0 541.76 221.63 L 535.6025 221.63 A 18.4725 18.4725 0 0 1 517.13 240.1025" fill="#101010"/><rect x="541.75" y="197" width="49.25" height="49.25" fill="#ffffff"/><rect x="541.75" y="197" width="24.63" height="24.63" fill="#cccccc"/><polygon points="566.38,197 566.38,221.63 541.75,221.63" fill="#135fff"/><rect x="566.38" y="197" width="24.63" height="24.63" fill="#1963ff"/><polygon points="566.38,197 591.01,197 566.38,221.63" fill="#cdcdcd"/><rect x="541.75" y="221.63" width="24.63" height="24.63" fill="#ebebeb"/><polygon points="541.75,221.63 566.38,221.63 566.38,246.26" fill="#929292"/><rect x="566.38" y="221.63" width="24.63" height="24.63" fill="#abc6ff"/><polygon points="566.38,221.63 591.01,246.26 566.38,246.26" fill="#e6e6e6"/><rect x="591" y="197" width="49.25" height="49.25" fill="#ffffff"/><rect x="591" y="197" width="24.63" height="24.63" fill="#9a9a9a"/><path d="M 591 221.63 A 24.63 24.63 0 0 1  615.63 197 L 615.63 221.63" fill="#8aafff"/><rect x="615.63" y="197" width="24.63" height="24.63" fill="#959595"/><path d="M 615.63 197 A 24.63 24.63 0 0 1 640.26 221.63 L 615.63 221.63" fill="#1a63ff"/><rect x="591" y="221.63" width="24.63" height="24.63" fill="#3979ff"/><path d="M 591 221.63 A 24.63 24.63 0 0 0 615.63 246.26 L 615.63 221.63" fill="#bfbfbf"/><rect x="615.63" y="221.63" width="24.63" height="24.63" fill="#b2b2b2"/><path d="M 615.63 246.26 A 24.63 24.63 0 0 0 640.26 221.63 L 615.63 221.63" fill="#777777"/><rect x="640.25" y="197" width="49.25" height="49.25" fill="#ffffff"/><rect x="640.25" y="197" width="24.63" height="24.63" fill="#c7c7c7"/><path d="M 640.25 221.63 A 24.63 24.63 0 0 1 664.88 197 L 664.88 203.1575 A 18.4725 18.4725 0 0 0 646.4075 221.63" fill="#333333"/><rect x="664.88" y="197" width="24.63" height="24.63" fill="#a5a5a5"/><path d="M 664.88 197 A 24.63 24.63 0 0 1 689.51 221.63 L 683.3525 221.63 A 18.4725 18.4725 0 0 0 664.88 203.1575" fill="#eaf1ff"/><rect x="640.25" y="221.63" width="24.63" height="24.63" fill="#e3ecff"/><path d="M 640.25 221.63 A 24.63 24.63 0 0 0 664.88 246.26 L 664.88 240.1025 A 18.4725 18.4725 0 0 1 646.4075 221.63" fill="#dde8ff"/><rect x="664.88" y="221.63" width="24.63" height="24.63" fill="#aec8ff"/><path d="M 664.88 246.26 A 24.63 24.63 0 0 0 689.51 221.63 L 683.3525 221.63 A 18.4725 18.4725 0 0 1 664.88 240.1025" fill="#588dff"/><rect x="689.5" y="197" width="49.25" height="49.25" fill="#ffffff"/><rect x="689.5" y="197" width="24.63" height="24.63" fill="#98b9ff"/><path d="M 689.5 221.63 A 24.63 24.63 0 0 1 714.13 197 L 714.13 203.1575 A 18.4725 18.4725 0 0 0 695.6575 221.63" fill="#f4f8ff"/><rect x="714.13" y="197" width="24.63" height="24.63" fill="#2f72ff"/><path d="M 714.13 197 A 24.63 24.63 0 0 1 738.76 221.63 L 732.6025 221.63 A 18.4725 18.4725 0 0 0 714.13 203.1575" fill="#d7d7d7"/><rect x="689.5" y="221.63" width="24.63" height="24.63" fill="#2e2e2e"/><path d="M 689.5 221.63 A 24.63 24.63 0 0 0 714.13 246.26 L 714.13 240.1025 A 18.4725 18.4725 0 0 1 695.6575 221.63" fill="#558bff"/><rect x="714.13" y="221.63" width="24.63" height="24.63" fill="#3777ff"/><path d="M 714.13 246.26 A 24.63 24.63 0 0 0 738.76 221.63 L 732.6025 221.63 A 18.4725 18.4725 0 0 1 714.13 240.1025" fill="#4581ff"/><rect x="738.75" y="197" width="49.25" height="49.25" fill="#373737"/><polygon points="738.75,197 788,246.25 738.75,246.25" fill="#3475ff"/><rect x="788" y="197" width="49.25" height="49.25" fill="#ffffff"/><rect x="788" y="197" width="24.63" height="24.63" fill="#b0b0b0"/><path d="M 788 221.63 A 24.63 24.63 0 0 1 812.63 197 L 812.63 203.1575 A 18.4725 18.4725 0 0 0 794.1575 221.63" fill="#9dbdff"/><rect x="812.63" y="197" width="24.63" height="24.63" fill="#fcfcfc"/><path d="M 812.63 197 A 24.63 24.63 0 0 1 837.26 221.63 L 831.1025 221.63 A 18.4725 18.4725 0 0 0 812.63 203.1575" fill="#4b4b4b"/><rect x="788" y="221.63" width="24.63" height="24.63" fill="#f6f9ff"/><path d="M 788 221.63 A 24.63 24.63 0 0 0 812.63 246.26 L 812.63 240.1025 A 18.4725 18.4725 0 0 1 794.1575 221.63" fill="#1c1c1c"/><rect x="812.63" y="221.63" width="24.63" height="24.63" fill="#393939"/><path d="M 812.63 246.26 A 24.63 24.63 0 0 0 837.26 221.63 L 831.1025 221.63 A 18.4725 18.4725 0 0 1 812.63 240.1025" fill="#1661ff"/><rect x="837.25" y="197" width="49.25" height="49.25" fill="#3374ff"/><path d="M 837.25 246.25 A 49.25 49.25 0 0 1  886.5 197 L 886.5 246.25" fill="#f1f1f1"/><rect x="886.5" y="197" width="49.25" height="49.25" fill="#ffffff"/><rect x="886.5" y="197" width="24.63" height="24.63" fill="#3e3e3e"/><path d="M 886.5 197 A 24.63 24.63 0 0 1 911.13 221.63 L 886.5 221.63" fill="#a0beff"/><rect x="911.13" y="197" width="24.63" height="24.63" fill="#cecece"/><path d="M 911.13 221.63 A 24.63 24.63 0 0 1  935.76 197 L 935.76 221.63" fill="#d0dfff"/><rect x="886.5" y="221.63" width="24.63" height="24.63" fill="#90b4ff"/><path d="M 886.5 246.26 A 24.63 24.63 0 0 0 911.13 221.63 L 886.5 221.63" fill="#5189ff"/><rect x="911.13" y="221.63" width="24.63" height="24.63" fill="#7b7b7b"/><path d="M 911.13 221.63 A 24.63 24.63 0 0 0 935.76 246.26 L 935.76 221.63" fill="#568cff"/><rect x="935.75" y="197" width="49.25" height="49.25" fill="#ffffff"/><rect x="935.75" y="197" width="24.63" height="24.63" fill="#363636"/><circle cx="948.065" cy="209.315" r="12.315" fill="#e4e4e4"/><rect x="960.38" y="197" width="24.63" height="24.63" fill="#5e92ff"/><rect x="960.38" y="197" width="24.63" height="24.63" fill="#636363"/><rect x="935.75" y="221.63" width="24.63" height="24.63" fill="#2d2d2d"/><circle cx="948.065" cy="233.945" r="12.315" fill="#99b9ff"/><rect x="960.38" y="221.63" width="24.63" height="24.63" fill="#a1a1a1"/><rect x="960.38" y="221.63" width="24.63" height="24.63" fill="#f9f9f9"/><rect x="985" y="197" width="49.25" height="49.25" fill="#ffffff"/><rect x="985" y="197" width="24.63" height="24.63" fill="#7da7ff"/><path d="M 985 221.63 A 24.63 24.63 0 0 0 1009.63 197 L 985 197" fill="#2b6fff"/><rect x="1009.63" y="197" width="24.63" height="24.63" fill="#7c7c7c"/><path d="M 1009.63 197 A 24.63 24.63 0 0 0 1034.26 221.63 L 1034.26 197" fill="#3576ff"/><rect x="985" y="221.63" width="24.63" height="24.63" fill="#acacac"/><path d="M 985 221.63 A 24.63 24.63 0 0 1 1009.63 246.26 L 985 246.26" fill="#abc6ff"/><rect x="1009.63" y="221.63" width="24.63" height="24.63" fill="#f8f8f8"/><path d="M 1009.63 246.26 A 24.63 24.63 0 0 1  1034.26 221.63 L 1034.26 246.26" fill="#303030"/><rect x="1034.25" y="197" width="49.25" height="49.25" fill="#545454"/><polygon points="1083.5,197 1083.5,246.25 1034.25,246.25" fill="#1e1e1e"/><rect x="0" y="246.25" width="49.25" height="49.25" fill="#c1c1c1"/><polygon points="0,246.25 49.25,295.5 0,295.5" fill="#6999ff"/><rect x="49.25" y="246.25" width="49.25" height="49.25" fill="#ffffff"/><rect x="49.25" y="246.25" width="24.63" height="24.63" fill="#9cbcff"/><path d="M 49.25 270.88 A 24.63 24.63 0 0 0 73.88 246.25 L 49.25 246.25" fill="#141414"/><rect x="73.88" y="246.25" width="24.63" height="24.63" fill="#85acff"/><path d="M 73.88 246.25 A 24.63 24.63 0 0 0 98.50999999999999 270.88 L 98.50999999999999 246.25" fill="#b2b2b2"/><rect x="49.25" y="270.88" width="24.63" height="24.63" fill="#fafafa"/><path d="M 49.25 270.88 A 24.63 24.63 0 0 1 73.88 295.51 L 49.25 295.51" fill="#707070"/><rect x="73.88" y="270.88" width="24.63" height="24.63" fill="#f1f1f1"/><path d="M 73.88 295.51 A 24.63 24.63 0 0 1  98.50999999999999 270.88 L 98.50999999999999 295.51" fill="#515151"/><rect x="98.5" y="246.25" width="49.25" height="49.25" fill="#97b9ff"/><rect x="98.5" y="246.25" width="49.25" height="49.25" fill="#868686"/><rect x="147.75" y="246.25" width="49.25" height="49.25" fill="#4e87ff"/><path d="M 147.75 295.5 A 49.25 49.25 0 0 1  197 246.25 L 147.75 295.5 A 49.25 49.25 0 0 0 197 246.25" fill="#747474"/><rect x="197" y="246.25" width="49.25" height="49.25" fill="#ffffff"/><rect x="197" y="246.25" width="24.63" height="24.63" fill="#626262"/><path d="M 197 270.88 A 24.63 24.63 0 0 1 221.63 246.25 L 221.63 252.4075 A 18.4725 18.4725 0 0 0 203.1575 270.88" fill="#555555"/><rect x="221.63" y="246.25" width="24.63" height="24.63" fill="#4983ff"/><path d="M 221.63 246.25 A 24.63 24.63 0 0 1 246.26 270.88 L 240.1025 270.88 A 18.4725 18.4725 0 0 0 221.63 252.4075" fill="#8f8f8f"/><rect x="197" y="270.88" width="24.63" height="24.63" fill="#b9cfff"/><path d="M 197 270.88 A 24.63 24.63 0 0 0 221.63 295.51 L 221.63 289.3525 A 18.4725 18.4725 0 0 1 203.1575 270.88" fill="#383838"/><rect x="221.63" y="270.88" width="24.63" height="24.63" fill="#f6f6f6"/><path d="M 221.63 295.51 A 24.63 24.63 0 0 0 246.26 270.88 L 240.1025 270.88 A 18.4725 18.4725 0 0 1 221.63 289.3525" fill="#76a2ff"/><rect x="246.25" y="246.25" width="49.25" height="49.25" fill="#626262"/><path d="M 246.25 246.25 A 49.25 49.25 0 0 0 295.5 295.5 L 295.5 246.25" fill="#717171"/><rect x="295.5" y="246.25" width="49.25" height="49.25" fill="#ffffff"/><rect x="295.5" y="246.25" width="24.63" height="24.63" fill="#6c9bff"/><path d="M 295.5 246.25 A 24.63 24.63 0 0 1 320.13 270.88 L 295.5 270.88" fill="#b5b5b5"/><rect x="320.13" y="246.25" width="24.63" height="24.63" fill="#969696"/><path d="M 320.13 270.88 A 24.63 24.63 0 0 1  344.76 246.25 L 344.76 270.88" fill="#141414"/><rect x="295.5" y="270.88" width="24.63" height="24.63" fill="#407dff"/><path d="M 295.5 295.51 A 24.63 24.63 0 0 0 320.13 270.88 L 295.5 270.88" fill="#0e5cff"/><rect x="320.13" y="270.88" width="24.63" height="24.63" fill="#83abff"/><path d="M 320.13 270.88 A 24.63 24.63 0 0 0 344.76 295.51 L 344.76 270.88" fill="#818181"/><rect x="344.75" y="246.25" width="49.25" height="49.25" fill="#2e71ff"/><rect x="344.75" y="246.25" width="49.25" height="49.25" fill="#090909"/><rect x="394" y="246.25" width="49.25" height="49.25" fill="#a1a1a1"/><polygon points="394,246.25 443.25,295.5 394,295.5" fill="#d4d4d4"/><rect x="443.25" y="246.25" width="49.25" height="49.25" fill="#ffffff"/><rect x="443.25" y="246.25" width="24.63" height="24.63" fill="#a9c5ff"/><polygon points="467.88,246.25 467.88,270.88 443.25,270.88" fill="#89afff"/><rect x="467.88" y="246.25" width="24.63" height="24.63" fill="#a5a5a5"/><polygon points="467.88,246.25 492.51,246.25 467.88,270.88" fill="#a2a2a2"/><rect x="443.25" y="270.88" width="24.63" height="24.63" fill="#a8a8a8"/><polygon points="443.25,270.88 467.88,270.88 467.88,295.51" fill="#6e9dff"/><rect x="467.88" y="270.88" width="24.63" height="24.63" fill="#dcdcdc"/><polygon points="467.88,270.88 492.51,295.51 467.88,295.51" fill="#fcfcfc"/><rect x="492.5" y="246.25" width="49.25" height="49.25" fill="#6e6e6e"/><path d="M 492.5 295.5 A 49.25 49.25 0 0 0 541.75 246.25 L 492.5 246.25" fill="#a0a0a0"/><rect x="541.75" y="246.25" width="49.25" height="49.25" fill="#ffffff"/><rect x="541.75" y="246.25" width="24.63" height="24.63" fill="#dae6ff"/><polygon points="566.38,246.25 566.38,270.88 541.75,270.88" fill="#252525"/><rect x="566.38" y="246.25" width="24.63" height="24.63" fill="#256bff"/><polygon points="566.38,246.25 591.01,246.25 566.38,270.88" fill="#89afff"/><rect x="541.75" y="270.88" width="24.63" height="24.63" fill="#3c7aff"/><polygon points="541.75,270.88 566.38,270.88 566.38,295.51" fill="#9bbbff"/><rect x="566.38" y="270.88" width="24.63" height="24.63" fill="#a3c0ff"/><polygon points="566.38,270.88 591.01,295.51 566.38,295.51" fill="#0b0b0b"/><rect x="591" y="246.25" width="49.25" height="49.25" fill="#ffffff"/><rect x="591" y="246.25" width="24.63" height="24.63" fill="#4380ff"/><polygon points="615.63,246.25 615.63,270.88 591,270.88" fill="#bababa"/><rect x="615.63" y="246.25" width="24.63" height="24.63" fill="#dadada"/><polygon points="615.63,246.25 640.26,246.25 615.63,270.88" fill="#d6d6d6"/><rect x="591" y="270.88" width="24.63" height="24.63" fill="#a2c0ff"/><polygon points="591,270.88 615.63,270.88 615.63,295.51" fill="#3d3d3d"/><rect x="615.63" y="270.88" width="24.63" height="24.63" fill="#aeaeae"/><polygon points="615.63,270.88 640.26,295.51 615.63,295.51" fill="#6b6b6b"/><rect x="640.25" y="246.25" width="49.25" height="49.25" fill="#656565"/><path d="M 640.25 295.5 A 49.25 49.25 0 0 1  689.5 246.25 L 689.5 295.5" fill="#fdfdfd"/><rect x="689.5" y="246.25" width="49.25" height="49.25" fill="#111111"/><rect x="689.5" y="246.25" width="49.25" height="49.25" fill="#cdcdcd"/><rect x="738.75" y="246.25" width="49.25" height="49.25" fill="#ffffff"/><rect x="738.75" y="246.25" width="24.63" height="24.63" fill="#a9c5ff"/><path d="M 738.75 270.88 A 24.63 24.63 0 0 1  763.38 246.25 L 763.38 270.88" fill="#2d71ff"/><rect x="763.38" y="246.25" width="24.63" height="24.63" fill="#d5d5d5"/><path d="M 763.38 246.25 A 24.63 24.63 0 0 1 788.01 270.88 L 763.38 270.88" fill="#373737"/><rect x="738.75" y="270.88" width="24.63" height="24.63" fill="#787878"/><path d="M 738.75 270.88 A 24.63 24.63 0 0 0 763.38 295.51 L 763.38 270.88" fill="#a0a0a0"/><rect x="763.38" y="270.88" width="24.63" height="24.63" fill="#101010"/><path d="M 763.38 295.51 A 24.63 24.63 0 0 0 788.01 270.88 L 763.38 270.88" fill="#417eff"/><rect x="788" y="246.25" width="49.25" height="49.25" fill="#ffffff"/><rect x="788" y="246.25" width="24.63" height="24.63" fill="#1d65ff"/><path d="M 788 270.88 A 24.63 24.63 0 0 1  812.63 246.25 L 812.63 270.88" fill="#7d7d7d"/><rect x="812.63" y="246.25" width="24.63" height="24.63" fill="#6d9cff"/><path d="M 812.63 246.25 A 24.63 24.63 0 0 1 837.26 270.88 L 812.63 270.88" fill="#6c6c6c"/><rect x="788" y="270.88" width="24.63" height="24.63" fill="#7a7a7a"/><path d="M 788 270.88 A 24.63 24.63 0 0 0 812.63 295.51 L 812.63 270.88" fill="#3677ff"/><rect x="812.63" y="270.88" width="24.63" height="24.63" fill="#b1caff"/><path d="M 812.63 295.51 A 24.63 24.63 0 0 0 837.26 270.88 L 812.63 270.88" fill="#f5f5f5"/><rect x="837.25" y="246.25" width="49.25" height="49.25" fill="#ffffff"/><rect x="837.25" y="246.25" width="24.63" height="24.63" fill="#d3d3d3"/><polygon points="861.88,246.25 861.88,270.88 837.25,270.88" fill="#ccdcff"/><rect x="861.88" y="246.25" width="24.63" height="24.63" fill="#d5d5d5"/><polygon points="861.88,246.25 886.51,246.25 861.88,270.88" fill="#89afff"/><rect x="837.25" y="270.88" width="24.63" height="24.63" fill="#f5f8ff"/><polygon points="837.25,270.88 861.88,270.88 861.88,295.51" fill="#0b0b0b"/><rect x="861.88" y="270.88" width="24.63" height="24.63" fill="#b7b7b7"/><polygon points="861.88,270.88 886.51,295.51 861.88,295.51" fill="#c0c0c0"/><rect x="886.5" y="246.25" width="49.25" height="49.25" fill="#404040"/><rect x="886.5" y="246.25" width="49.25" height="49.25" fill="#adadad"/><rect x="935.75" y="246.25" width="49.25" height="49.25" fill="#d8e5ff"/><polygon points="935.75,246.25 985,246.25 985,295.5" fill="#131313"/><rect x="985" y="246.25" width="49.25" height="49.25" fill="#ffffff"/><rect x="985" y="246.25" width="24.63" height="24.63" fill="#d5e3ff"/><path d="M 985 270.88 A 24.63 24.63 0 0 1 1009.63 246.25 L 1009.63 252.4075 A 18.4725 18.4725 0 0 0 991.1575 270.88" fill="#5f5f5f"/><rect x="1009.63" y="246.25" width="24.63" height="24.63" fill="#c6d8ff"/><path d="M 1009.63 246.25 A 24.63 24.63 0 0 1 1034.26 270.88 L 1028.1025 270.88 A 18.4725 18.4725 0 0 0 1009.63 252.4075" fill="#95b7ff"/><rect x="985" y="270.88" width="24.63" height="24.63" fill="#656565"/><path d="M 985 270.88 A 24.63 24.63 0 0 0 1009.63 295.51 L 1009.63 289.3525 A 18.4725 18.4725 0 0 1 991.1575 270.88" fill="#f7f9ff"/><rect x="1009.63" y="270.88" width="24.63" height="24.63" fill="#555555"/><path d="M 1009.63 295.51 A 24.63 24.63 0 0 0 1034.26 270.88 L 1028.1025 270.88 A 18.4725 18.4725 0 0 1 1009.63 289.3525" fill="#bcd2ff"/><rect x="1034.25" y="246.25" width="49.25" height="49.25" fill="#020202"/><polygon points="1083.5,246.25 1083.5,295.5 1034.25,295.5" fill="#7ea8ff"/><rect x="0" y="295.5" width="49.25" height="49.25" fill="#c4d7ff"/><rect x="0" y="295.5" width="49.25" height="49.25" fill="#898989"/><rect x="49.25" y="295.5" width="49.25" height="49.25" fill="#ffffff"/><rect x="49.25" y="295.5" width="24.63" height="24.63" fill="#d9d9d9"/><path d="M 49.25 295.5 A 24.63 24.63 0 0 0 73.88 320.13 L 73.88 295.5" fill="#d6d6d6"/><rect x="73.88" y="295.5" width="24.63" height="24.63" fill="#b2cbff"/><path d="M 73.88 320.13 A 24.63 24.63 0 0 0 98.50999999999999 295.5 L 73.88 295.5" fill="#88aeff"/><rect x="49.25" y="320.13" width="24.63" height="24.63" fill="#5d91ff"/><path d="M 49.25 344.76 A 24.63 24.63 0 0 1  73.88 320.13 L 73.88 344.76" fill="#1862ff"/><rect x="73.88" y="320.13" width="24.63" height="24.63" fill="#73a0ff"/><path d="M 73.88 320.13 A 24.63 24.63 0 0 1 98.50999999999999 344.76 L 73.88 344.76" fill="#4782ff"/><rect x="98.5" y="295.5" width="49.25" height="49.25" fill="#ffffff"/><rect x="98.5" y="295.5" width="24.63" height="24.63" fill="#e7e7e7"/><polygon points="123.13,295.5 123.13,320.13 98.5,320.13" fill="#dbe6ff"/><rect x="123.13" y="295.5" width="24.63" height="24.63" fill="#85acff"/><polygon points="123.13,295.5 147.76,320.13 123.13,320.13" fill="#6798ff"/><rect x="98.5" y="320.13" width="24.63" height="24.63" fill="#91b4ff"/><polygon points="98.5,320.13 123.13,320.13 123.13,344.76" fill="#5f5f5f"/><rect x="123.13" y="320.13" width="24.63" height="24.63" fill="#407dff"/><polygon points="123.13,320.13 147.76,320.13 123.13,344.76" fill="#454545"/><rect x="147.75" y="295.5" width="49.25" height="49.25" fill="#d8e5ff"/><rect x="147.75" y="295.5" width="49.25" height="49.25" fill="#f7f7f7"/><rect x="197" y="295.5" width="49.25" height="49.25" fill="#ffffff"/><rect x="197" y="295.5" width="24.63" height="24.63" fill="#fbfbfb"/><path d="M 197 320.13 A 24.63 24.63 0 0 1 221.63 295.5 L 221.63 301.6575 A 18.4725 18.4725 0 0 0 203.1575 320.13" fill="#5e5e5e"/><rect x="221.63" y="295.5" width="24.63" height="24.63" fill="#0e0e0e"/><path d="M 221.63 295.5 A 24.63 24.63 0 0 1 246.26 320.13 L 240.1025 320.13 A 18.4725 18.4725 0 0 0 221.63 301.6575" fill="#dce7ff"/><rect x="197" y="320.13" width="24.63" height="24.63" fill="#d5d5d5"/><path d="M 197 320.13 A 24.63 24.63 0 0 0 221.63 344.76 L 221.63 338.6025 A 18.4725 18.4725 0 0 1 203.1575 320.13" fill="#1d1d1d"/><rect x="221.63" y="320.13" width="24.63" height="24.63" fill="#7b7b7b"/><path d="M 221.63 344.76 A 24.63 24.63 0 0 0 246.26 320.13 L 240.1025 320.13 A 18.4725 18.4725 0 0 1 221.63 338.6025" fill="#2b2b2b"/><rect x="246.25" y="295.5" width="49.25" height="49.25" fill="#ffffff"/><rect x="246.25" y="295.5" width="24.63" height="24.63" fill="#0d0d0d"/><polygon points="270.88,295.5 270.88,320.13 246.25,320.13" fill="#4782ff"/><rect x="270.88" y="295.5" width="24.63" height="24.63" fill="#0555ff"/><polygon points="270.88,295.5 295.51,320.13 270.88,320.13" fill="#98b9ff"/><rect x="246.25" y="320.13" width="24.63" height="24.63" fill="#437fff"/><polygon points="246.25,320.13 270.88,320.13 246.25,344.76" fill="#282828"/><rect x="270.88" y="320.13" width="24.63" height="24.63" fill="#f2f2f2"/><polygon points="270.88,320.13 295.51,320.13 295.51,344.76" fill="#e4e4e4"/><rect x="295.5" y="295.5" width="49.25" height="49.25" fill="#323232"/><rect x="295.5" y="295.5" width="49.25" height="49.25" fill="#dcdcdc"/><rect x="344.75" y="295.5" width="49.25" height="49.25" fill="#2168ff"/><path d="M 344.75 295.5 A 49.25 49.25 0 0 0 394 344.75 L 394 295.5" fill="#404040"/><rect x="394" y="295.5" width="49.25" height="49.25" fill="#ffffff"/><rect x="394" y="295.5" width="24.63" height="24.63" fill="#437fff"/><polygon points="418.63,295.5 418.63,320.13 394,320.13" fill="#ccdcff"/><rect x="418.63" y="295.5" width="24.63" height="24.63" fill="#b5b5b5"/><polygon points="418.63,295.5 443.26,320.13 418.63,320.13" fill="#86adff"/><rect x="394" y="320.13" width="24.63" height="24.63" fill="#494949"/><polygon points="394,320.13 418.63,320.13 394,344.76" fill="#cedeff"/><rect x="418.63" y="320.13" width="24.63" height="24.63" fill="#74a1ff"/><polygon points="418.63,320.13 443.26,320.13 443.26,344.76" fill="#888888"/><rect x="443.25" y="295.5" width="49.25" height="49.25" fill="#6093ff"/><polygon points="492.5,295.5 492.5,344.75 443.25,344.75" fill="#717171"/><rect x="492.5" y="295.5" width="49.25" height="49.25" fill="#ffffff"/><rect x="492.5" y="295.5" width="24.63" height="24.63" fill="#85acff"/><polygon points="517.13,295.5 517.13,320.13 492.5,320.13" fill="#242424"/><rect x="517.13" y="295.5" width="24.63" height="24.63" fill="#5d5d5d"/><polygon points="517.13,295.5 541.76,295.5 517.13,320.13" fill="#e7efff"/><rect x="492.5" y="320.13" width="24.63" height="24.63" fill="#2a6fff"/><polygon points="492.5,320.13 517.13,320.13 517.13,344.76" fill="#5e5e5e"/><rect x="517.13" y="320.13" width="24.63" height="24.63" fill="#272727"/><polygon points="517.13,320.13 541.76,344.76 517.13,344.76" fill="#4581ff"/><rect x="541.75" y="295.5" width="49.25" height="49.25" fill="#ffffff"/><rect x="541.75" y="295.5" width="24.63" height="24.63" fill="#3475ff"/><polygon points="566.38,295.5 566.38,320.13 541.75,320.13" fill="#efefef"/><rect x="566.38" y="295.5" width="24.63" height="24.63" fill="#afc9ff"/><polygon points="566.38,295.5 591.01,295.5 566.38,320.13" fill="#a1bfff"/><rect x="541.75" y="320.13" width="24.63" height="24.63" fill="#a8a8a8"/><polygon points="541.75,320.13 566.38,320.13 566.38,344.76" fill="#e1eaff"/><rect x="566.38" y="320.13" width="24.63" height="24.63" fill="#fefefe"/><polygon points="566.38,320.13 591.01,344.76 566.38,344.76" fill="#f9fbff"/><rect x="591" y="295.5" width="49.25" height="49.25" fill="#d3e1ff"/><path d="M 591 344.75 A 49.25 49.25 0 0 1  640.25 295.5 L 591 344.75 A 49.25 49.25 0 0 0 640.25 295.5" fill="#719fff"/><rect x="640.25" y="295.5" width="49.25" height="49.25" fill="#4a4a4a"/><polygon points="640.25,295.5 689.5,295.5 640.25,344.75" fill="#dfdfdf"/><rect x="689.5" y="295.5" width="49.25" height="49.25" fill="#ffffff"/><rect x="689.5" y="295.5" width="24.63" height="24.63" fill="#5a8fff"/><path d="M 689.5 320.13 A 24.63 24.63 0 0 0 714.13 295.5 L 689.5 295.5" fill="#e3ecff"/><rect x="714.13" y="295.5" width="24.63" height="24.63" fill="#8ab0ff"/><path d="M 714.13 295.5 A 24.63 24.63 0 0 0 738.76 320.13 L 738.76 295.5" fill="#9dbdff"/><rect x="689.5" y="320.13" width="24.63" height="24.63" fill="#88aeff"/><path d="M 689.5 320.13 A 24.63 24.63 0 0 1 714.13 344.76 L 689.5 344.76" fill="#e0e0e0"/><rect x="714.13" y="320.13" width="24.63" height="24.63" fill="#c8d9ff"/><path d="M 714.13 344.76 A 24.63 24.63 0 0 1  738.76 320.13 L 738.76 344.76" fill="#6d6d6d"/><rect x="738.75" y="295.5" width="49.25" height="49.25" fill="#ffffff"/><rect x="738.75" y="295.5" width="24.63" height="24.63" fill="#3b7aff"/><path d="M 738.75 295.5 A 24.63 24.63 0 0 1 763.38 320.13 L 738.75 320.13" fill="#719fff"/><rect x="763.38" y="295.5" width="24.63" height="24.63" fill="#2068ff"/><path d="M 763.38 320.13 A 24.63 24.63 0 0 1  788.01 295.5 L 788.01 320.13" fill="#bfbfbf"/><rect x="738.75" y="320.13" width="24.63" height="24.63" fill="#fdfeff"/><path d="M 738.75 344.76 A 24.63 24.63 0 0 0 763.38 320.13 L 738.75 320.13" fill="#a8a8a8"/><rect x="763.38" y="320.13" width="24.63" height="24.63" fill="#adadad"/><path d="M 763.38 320.13 A 24.63 24.63 0 0 0 788.01 344.76 L 788.01 320.13" fill="#646464"/><rect x="788" y="295.5" width="49.25" height="49.25" fill="#ffffff"/><rect x="788" y="295.5" width="24.63" height="24.63" fill="#9dbcff"/><polygon points="812.63,295.5 812.63,320.13 788,320.13" fill="#84abff"/><rect x="812.63" y="295.5" width="24.63" height="24.63" fill="#eaeaea"/><polygon points="812.63,295.5 837.26,320.13 812.63,320.13" fill="#515151"/><rect x="788" y="320.13" width="24.63" height="24.63" fill="#2169ff"/><polygon points="788,320.13 812.63,320.13 812.63,344.76" fill="#fdfdfd"/><rect x="812.63" y="320.13" width="24.63" height="24.63" fill="#1963ff"/><polygon points="812.63,320.13 837.26,320.13 812.63,344.76" fill="#f1f1f1"/><rect x="837.25" y="295.5" width="49.25" height="49.25" fill="#ffffff"/><rect x="837.25" y="295.5" width="24.63" height="24.63" fill="#444444"/><circle cx="849.565" cy="307.815" r="12.315" fill="#d6d6d6"/><rect x="861.88" y="295.5" width="24.63" height="24.63" fill="#417eff"/><rect x="861.88" y="295.5" width="24.63" height="24.63" fill="#1f1f1f"/><rect x="837.25" y="320.13" width="24.63" height="24.63" fill="#d8e5ff"/><circle cx="849.565" cy="332.445" r="12.315" fill="#84acff"/><rect x="861.88" y="320.13" width="24.63" height="24.63" fill="#6d9cff"/><rect x="861.88" y="320.13" width="24.63" height="24.63" fill="#e1eaff"/><rect x="886.5" y="295.5" width="49.25" height="49.25" fill="#97b9ff"/><polygon points="886.5,295.5 935.75,344.75 886.5,344.75" fill="#f7f7f7"/><rect x="935.75" y="295.5" width="49.25" height="49.25" fill="#598eff"/><path d="M 935.75 295.5 A 49.25 49.25 0 0 1 985 344.75 L 935.75 344.75" fill="#838383"/><rect x="985" y="295.5" width="49.25" height="49.25" fill="#ffffff"/><rect x="985" y="295.5" width="24.63" height="24.63" fill="#1e1e1e"/><polygon points="1009.63,295.5 1009.63,320.13 985,320.13" fill="#1460ff"/><rect x="1009.63" y="295.5" width="24.63" height="24.63" fill="#6597ff"/><polygon points="1009.63,295.5 1034.26,295.5 1009.63,320.13" fill="#5b8fff"/><rect x="985" y="320.13" width="24.63" height="24.63" fill="#fbfcff"/><polygon points="985,320.13 1009.63,320.13 1009.63,344.76" fill="#8d8d8d"/><rect x="1009.63" y="320.13" width="24.63" height="24.63" fill="#a9c5ff"/><polygon points="1009.63,320.13 1034.26,344.76 1009.63,344.76" fill="#5f93ff"/><rect x="1034.25" y="295.5" width="49.25" height="49.25" fill="#4d86ff"/><polygon points="1034.25,295.5 1083.5,344.75 1034.25,344.75" fill="#a2c0ff"/><rect x="0" y="344.75" width="49.25" height="49.25" fill="#ffffff"/><rect x="0" y="344.75" width="24.63" height="24.63" fill="#d3e1ff"/><polygon points="24.63,344.75 24.63,369.38 0,369.38" fill="#cbcbcb"/><rect x="24.63" y="344.75" width="24.63" height="24.63" fill="#0b59ff"/><polygon points="24.63,344.75 49.26,344.75 24.63,369.38" fill="#111111"/><rect x="0" y="369.38" width="24.63" height="24.63" fill="#989898"/><polygon points="0,369.38 24.63,369.38 24.63,394.01" fill="#333333"/><rect x="24.63" y="369.38" width="24.63" height="24.63" fill="#070707"/><polygon points="24.63,369.38 49.26,394.01 24.63,394.01" fill="#b3b3b3"/><rect x="49.25" y="344.75" width="49.25" height="49.25" fill="#ffffff"/><rect x="49.25" y="344.75" width="24.63" height="24.63" fill="#ececec"/><path d="M 49.25 344.75 A 24.63 24.63 0 0 0 73.88 369.38 L 73.88 344.75" fill="#f0f0f0"/><rect x="73.88" y="344.75" width="24.63" height="24.63" fill="#c7c7c7"/><path d="M 73.88 369.38 A 24.63 24.63 0 0 0 98.50999999999999 344.75 L 73.88 344.75" fill="#c1c1c1"/><rect x="49.25" y="369.38" width="24.63" height="24.63" fill="#1b1b1b"/><path d="M 49.25 394.01 A 24.63 24.63 0 0 1  73.88 369.38 L 73.88 394.01" fill="#5c90ff"/><rect x="73.88" y="369.38" width="24.63" height="24.63" fill="#6d6d6d"/><path d="M 73.88 369.38 A 24.63 24.63 0 0 1 98.50999999999999 394.01 L 73.88 394.01" fill="#fdfeff"/><rect x="98.5" y="344.75" width="49.25" height="49.25" fill="#ffffff"/><rect x="98.5" y="344.75" width="24.63" height="24.63" fill="#1560ff"/><polygon points="123.13,344.75 123.13,369.38 98.5,369.38" fill="#e9f0ff"/><rect x="123.13" y="344.75" width="24.63" height="24.63" fill="#c0c0c0"/><polygon points="123.13,344.75 147.76,369.38 123.13,369.38" fill="#d2d2d2"/><rect x="98.5" y="369.38" width="24.63" height="24.63" fill="#dadada"/><polygon points="98.5,369.38 123.13,369.38 98.5,394.01" fill="#adc8ff"/><rect x="123.13" y="369.38" width="24.63" height="24.63" fill="#286dff"/><polygon points="123.13,369.38 147.76,369.38 147.76,394.01" fill="#4581ff"/><rect x="147.75" y="344.75" width="49.25" height="49.25" fill="#040404"/><path d="M 147.75 344.75 A 49.25 49.25 0 0 1  197 394 L 147.75 344.75 A 49.25 49.25 0 0 0 197 394" fill="#2068ff"/><rect x="197" y="344.75" width="49.25" height="49.25" fill="#ffffff"/><rect x="197" y="344.75" width="24.63" height="24.63" fill="#7fa8ff"/><path d="M 197 344.75 A 24.63 24.63 0 0 0 221.63 369.38 L 221.63 344.75" fill="#858585"/><rect x="221.63" y="344.75" width="24.63" height="24.63" fill="#e4e4e4"/><path d="M 221.63 369.38 A 24.63 24.63 0 0 0 246.26 344.75 L 221.63 344.75" fill="#6a6a6a"/><rect x="197" y="369.38" width="24.63" height="24.63" fill="#b1b1b1"/><path d="M 197 394.01 A 24.63 24.63 0 0 1  221.63 369.38 L 221.63 394.01" fill="#c6c6c6"/><rect x="221.63" y="369.38" width="24.63" height="24.63" fill="#578dff"/><path d="M 221.63 369.38 A 24.63 24.63 0 0 1 246.26 394.01 L 221.63 394.01" fill="#0c0c0c"/><rect x="246.25" y="344.75" width="49.25" height="49.25" fill="#a2c0ff"/><polygon points="246.25,344.75 295.5,344.75 295.5,394" fill="#cdddff"/><rect x="295.5" y="344.75" width="49.25" height="49.25" fill="#e3ecff"/><rect x="295.5" y="344.75" width="49.25" height="49.25" fill="#f5f8ff"/><rect x="344.75" y="344.75" width="49.25" height="49.25" fill="#ffffff"/><rect x="344.75" y="344.75" width="24.63" height="24.63" fill="#6798ff"/><path d="M 344.75 369.38 A 24.63 24.63 0 0 1 369.38 344.75 L 369.38 350.9075 A 18.4725 18.4725 0 0 0 350.9075 369.38" fill="#4782ff"/><rect x="369.38" y="344.75" width="24.63" height="24.63" fill="#cfcfcf"/><path d="M 369.38 344.75 A 24.63 24.63 0 0 1 394.01 369.38 L 387.8525 369.38 A 18.4725 18.4725 0 0 0 369.38 350.9075" fill="#0757ff"/><rect x="344.75" y="369.38" width="24.63" height="24.63" fill="#a2a2a2"/><path d="M 344.75 369.38 A 24.63 24.63 0 0 0 369.38 394.01 L 369.38 387.8525 A 18.4725 18.4725 0 0 1 350.9075 369.38" fill="#246aff"/><rect x="369.38" y="369.38" width="24.63" height="24.63" fill="#5f93ff"/><path d="M 369.38 394.01 A 24.63 24.63 0 0 0 394.01 369.38 L 387.8525 369.38 A 18.4725 18.4725 0 0 1 369.38 387.8525" fill="#c7d9ff"/><rect x="394" y="344.75" width="49.25" height="49.25" fill="#ffffff"/><rect x="394" y="344.75" width="24.63" height="24.63" fill="#a2c0ff"/><polygon points="418.63,344.75 418.63,369.38 394,369.38" fill="#eaf0ff"/><rect x="418.63" y="344.75" width="24.63" height="24.63" fill="#1c65ff"/><polygon points="418.63,344.75 443.26,369.38 418.63,369.38" fill="#afafaf"/><rect x="394" y="369.38" width="24.63" height="24.63" fill="#a9c5ff"/><polygon points="394,369.38 418.63,369.38 418.63,394.01" fill="#7ea8ff"/><rect x="418.63" y="369.38" width="24.63" height="24.63" fill="#0254ff"/><polygon points="418.63,369.38 443.26,369.38 418.63,394.01" fill="#98b9ff"/><rect x="443.25" y="344.75" width="49.25" height="49.25" fill="#ffffff"/><rect x="443.25" y="344.75" width="24.63" height="24.63" fill="#898989"/><polygon points="467.88,344.75 467.88,369.38 443.25,369.38" fill="#0b0b0b"/><rect x="467.88" y="344.75" width="24.63" height="24.63" fill="#3878ff"/><polygon points="467.88,344.75 492.51,344.75 467.88,369.38" fill="#b8cfff"/><rect x="443.25" y="369.38" width="24.63" height="24.63" fill="#c4d7ff"/><polygon points="443.25,369.38 467.88,369.38 467.88,394.01" fill="#236aff"/><rect x="467.88" y="369.38" width="24.63" height="24.63" fill="#eeeeee"/><polygon points="467.88,369.38 492.51,394.01 467.88,394.01" fill="#276cff"/><rect x="492.5" y="344.75" width="49.25" height="49.25" fill="#dee8ff"/><path d="M 492.5 394 A 49.25 49.25 0 0 1  541.75 344.75 L 492.5 394 A 49.25 49.25 0 0 0 541.75 344.75" fill="#2b6fff"/><rect x="541.75" y="344.75" width="49.25" height="49.25" fill="#ffffff"/><rect x="541.75" y="344.75" width="24.63" height="24.63" fill="#c9dbff"/><path d="M 541.75 369.38 A 24.63 24.63 0 0 1  566.38 344.75 L 566.38 369.38" fill="#191919"/><rect x="566.38" y="344.75" width="24.63" height="24.63" fill="#c1c1c1"/><path d="M 566.38 344.75 A 24.63 24.63 0 0 1 591.01 369.38 L 566.38 369.38" fill="#4f4f4f"/><rect x="541.75" y="369.38" width="24.63" height="24.63" fill="#5189ff"/><path d="M 541.75 369.38 A 24.63 24.63 0 0 0 566.38 394.01 L 566.38 369.38" fill="#8bb0ff"/><rect x="566.38" y="369.38" width="24.63" height="24.63" fill="#8d8d8d"/><path d="M 566.38 394.01 A 24.63 24.63 0 0 0 591.01 369.38 L 566.38 369.38" fill="#3375ff"/><rect x="591" y="344.75" width="49.25" height="49.25" fill="#ffffff"/><rect x="591" y="344.75" width="24.63" height="24.63" fill="#d4d4d4"/><path d="M 591 369.38 A 24.63 24.63 0 0 1  615.63 344.75 L 615.63 369.38" fill="#838383"/><rect x="615.63" y="344.75" width="24.63" height="24.63" fill="#5f5f5f"/><path d="M 615.63 344.75 A 24.63 24.63 0 0 1 640.26 369.38 L 615.63 369.38" fill="#95b7ff"/><rect x="591" y="369.38" width="24.63" height="24.63" fill="#85acff"/><path d="M 591 369.38 A 24.63 24.63 0 0 0 615.63 394.01 L 615.63 369.38" fill="#9d9d9d"/><rect x="615.63" y="369.38" width="24.63" height="24.63" fill="#3375ff"/><path d="M 615.63 394.01 A 24.63 24.63 0 0 0 640.26 369.38 L 615.63 369.38" fill="#5b90ff"/><rect x="640.25" y="344.75" width="49.25" height="49.25" fill="#ffffff"/><rect x="640.25" y="344.75" width="24.63" height="24.63" fill="#747474"/><polygon points="664.88,344.75 664.88,369.38 640.25,369.38" fill="#191919"/><rect x="664.88" y="344.75" width="24.63" height="24.63" fill="#030303"/><polygon points="664.88,344.75 689.51,344.75 664.88,369.38" fill="#dddddd"/><rect x="640.25" y="369.38" width="24.63" height="24.63" fill="#7fa8ff"/><polygon points="640.25,369.38 664.88,369.38 664.88,394.01" fill="#6a9aff"/><rect x="664.88" y="369.38" width="24.63" height="24.63" fill="#5e5e5e"/><polygon points="664.88,369.38 689.51,394.01 664.88,394.01" fill="#dcdcdc"/><rect x="689.5" y="344.75" width="49.25" height="49.25" fill="#f7f9ff"/><polygon points="689.5,344.75 738.75,344.75 738.75,394" fill="#afafaf"/><rect x="738.75" y="344.75" width="49.25" height="49.25" fill="#ffffff"/><rect x="738.75" y="344.75" width="24.63" height="24.63" fill="#d1e0ff"/><path d="M 738.75 369.38 A 24.63 24.63 0 0 1  763.38 344.75 L 763.38 369.38" fill="#abc6ff"/><rect x="763.38" y="344.75" width="24.63" height="24.63" fill="#454545"/><path d="M 763.38 344.75 A 24.63 24.63 0 0 1 788.01 369.38 L 763.38 369.38" fill="#9e9e9e"/><rect x="738.75" y="369.38" width="24.63" height="24.63" fill="#303030"/><path d="M 738.75 369.38 A 24.63 24.63 0 0 0 763.38 394.01 L 763.38 369.38" fill="#262626"/><rect x="763.38" y="369.38" width="24.63" height="24.63" fill="#7d7d7d"/><path d="M 763.38 394.01 A 24.63 24.63 0 0 0 788.01 369.38 L 763.38 369.38" fill="#cccccc"/><rect x="788" y="344.75" width="49.25" height="49.25" fill="#6294ff"/><rect x="788" y="344.75" width="49.25" height="49.25" fill="#1862ff"/><rect x="837.25" y="344.75" width="49.25" height="49.25" fill="#4c4c4c"/><path d="M 837.25 394 A 49.25 49.25 0 0 0 886.5 344.75 L 837.25 344.75" fill="#3a79ff"/><rect x="886.5" y="344.75" width="49.25" height="49.25" fill="#f0f5ff"/><polygon points="886.5,344.75 935.75,344.75 935.75,394" fill="#fcfcfc"/><rect x="935.75" y="344.75" width="49.25" height="49.25" fill="#ffffff"/><rect x="935.75" y="344.75" width="24.63" height="24.63" fill="#99baff"/><circle cx="948.065" cy="357.065" r="12.315" fill="#565656"/><rect x="960.38" y="344.75" width="24.63" height="24.63" fill="#808080"/><rect x="960.38" y="344.75" width="24.63" height="24.63" fill="#eeeeee"/><rect x="935.75" y="369.38" width="24.63" height="24.63" fill="#474747"/><circle cx="948.065" cy="381.695" r="12.315" fill="#cccccc"/><rect x="960.38" y="369.38" width="24.63" height="24.63" fill="#73a0ff"/><rect x="960.38" y="369.38" width="24.63" height="24.63" fill="#bcd2ff"/><rect x="985" y="344.75" width="49.25" height="49.25" fill="#f1f6ff"/><polygon points="985,344.75 1034.25,344.75 985,394" fill="#e7e7e7"/><rect x="1034.25" y="344.75" width="49.25" height="49.25" fill="#e4ecff"/><polygon points="1034.25,344.75 1083.5,344.75 1083.5,394" fill="#262626"/></g></svg>