<?xml version="1.0" encoding="utf-8"?>
<!-- Generator: Adobe Illustrator 25.4.1, SVG Export Plug-In . SVG Version: 6.00 Build 0)  -->
<svg viewBox="0 0 698 85" fill="none" xmlns="http://www.w3.org/2000/svg"><path d="M29.6986 36.4573C36.6847 36.4573 42.2243 40.8255 44.3171 47.3078H58.3816C55.8272 33.426 44.5325 24.0211 29.7909 24.0211C13.0797 24.0367 0 36.9081 0 54.1321C0 71.3562 12.7412 84.1343 29.8063 84.1343C44.2094 84.1343 55.7349 74.7295 58.2739 60.7388H44.3171C42.3167 67.2367 36.777 71.7137 29.8063 71.7137C20.1735 71.7137 13.4028 64.221 13.4028 54.1477C13.4028 43.9501 20.0504 36.4573 29.6986 36.4573ZM253.054 24.0367C245.637 24.0367 239.42 27.1768 234.988 32.4311V0.75H221.693V83.0151H234.773V75.398C239.205 80.8854 245.514 84.1343 253.054 84.1343C269.011 84.1343 281.09 71.3718 281.09 54.1321C281.09 36.8925 268.78 24.0367 253.054 24.0367ZM251.053 71.7137C241.528 71.7137 234.542 64.221 234.542 54.1477C234.542 44.0744 241.636 36.4573 251.161 36.4573C260.794 36.4573 267.564 43.9501 267.564 54.1477C267.564 64.2054 260.578 71.7137 251.053 71.7137ZM141.599 1.30963C136.721 1.30963 133.074 4.88502 133.074 9.81284C133.074 14.7407 136.737 18.3161 141.599 18.3161C146.462 18.3161 150.124 14.7407 150.124 9.81284C150.124 4.88502 146.462 1.30963 141.599 1.30963ZM189.902 24.0367C181.254 24.0367 175.606 27.6121 172.283 32.6487V25.1559H159.095V83.0151H172.39V51.5672C172.39 42.722 177.93 36.4573 186.132 36.4573C193.78 36.4573 198.534 41.9447 198.534 49.8883V83.0151H211.83V48.8779C211.83 34.3276 204.413 24.0367 189.902 24.0367ZM126.642 37.1257H134.952V83.0151H148.247V25.1559H126.642V37.1257ZM379.25 48.5359L369.494 47.0746C364.847 46.4062 361.523 44.8361 361.523 41.1364C361.523 37.1102 365.847 35.0893 371.71 35.0893C378.142 35.0893 382.235 37.8874 383.127 42.4733H395.976C394.53 30.8299 385.666 24.0056 372.048 24.0056C357.984 24.0056 348.674 31.2807 348.674 41.5716C348.674 51.4273 354.768 57.1324 367.062 58.9201L376.818 60.3813C381.589 61.0498 384.235 62.9618 384.235 66.5372C384.235 71.123 379.588 73.0351 373.156 73.0351C365.293 73.0351 360.861 69.7861 360.199 64.8583H347.12C348.335 76.1597 357.091 84.1033 373.048 84.1033C387.559 84.1033 397.207 77.3877 397.207 65.8532C397.192 55.5934 390.206 50.2148 379.25 48.5359ZM92.9582 24.0367C76.2316 24.0367 63.1519 36.9081 63.1519 54.1477C63.1519 71.3873 75.893 84.1499 92.9582 84.1499C110.023 84.1499 122.98 71.1697 122.98 54.0389C122.98 37.0169 110.239 24.0367 92.9582 24.0367ZM93.0659 71.7137C83.5408 71.7137 76.5547 64.221 76.5547 54.1477C76.5547 43.9656 83.4177 36.4573 92.9582 36.4573C102.591 36.4573 109.577 44.0744 109.577 54.1477C109.577 64.221 102.591 71.7137 93.0659 71.7137ZM336.702 44.9605C336.702 32.4311 329.162 24.0367 313.22 24.0367C298.156 24.0367 289.738 31.7626 288.076 43.6236H301.264C301.926 39.0378 305.48 35.2292 313.005 35.2292C319.76 35.2292 323.084 38.245 323.084 41.9447C323.084 46.7637 316.99 47.9918 309.45 48.7691C299.263 49.8883 286.63 53.4637 286.63 66.8947C286.63 77.31 294.278 84.0255 306.465 84.0255C315.99 84.0255 321.976 79.9993 324.961 73.6103C325.407 79.3153 329.608 83.0151 335.487 83.0151H343.242V71.0453H336.702V44.9605ZM323.622 59.5108C323.622 67.2367 316.975 72.9418 308.881 72.9418C303.895 72.9418 299.679 70.8121 299.679 66.3351C299.679 60.63 306.434 59.06 312.636 58.3915C318.621 57.8319 321.945 56.495 323.607 53.9145V59.5108H323.622ZM432.538 24.0367C415.473 24.0367 402.962 37.0169 402.962 54.1477C402.962 72.1646 416.365 84.1499 432.769 84.1499C446.618 84.1499 457.482 75.8643 460.251 64.1122H446.402C444.402 69.2576 439.539 72.1646 433 72.1646C424.475 72.1646 418.043 66.7859 416.596 57.3966H460.575V52.2512C460.559 35.6645 448.603 24.0367 432.538 24.0367ZM417.35 47.7586C419.458 39.7062 425.444 35.7888 432.307 35.7888C439.847 35.7888 445.602 40.157 446.926 47.7586H417.35Z" fill="#0052FF"></path><path fill-rule="evenodd" clip-rule="evenodd" d="M499.824 48.5406V24H491V82.6749H499.824V56.1878H529.563V82.6749H538.387V24H529.563V48.5406H499.824ZM593.626 31.6472V24H553.396V82.6749H593.626V75.0277H562.22V56.1878H591.125V48.6796H562.22V31.6472H593.626ZM614.402 24V75.0277H643.932V82.6749H605.577V24H614.402ZM678.117 24H652.756V82.7444H661.58V58.9686H678.117C690.763 58.9686 697.851 51.808 697.851 41.4495C697.851 31.091 690.763 24 678.117 24ZM677.839 31.5777C685.135 31.5777 688.818 35.1232 688.818 40.8934V40.9629V41.9362C688.818 47.7063 685.205 51.3214 677.839 51.3214H661.58V31.5777H677.839Z" fill="#0A0B0D"></path></svg>